<?xml version="1.0" standalone="no"?>
<!DOCTYPE svg PUBLIC "-//W3C//DTD SVG 20010904//EN"
 "http://www.w3.org/TR/2001/REC-SVG-20010904/DTD/svg10.dtd">
<svg version="1.0" xmlns="http://www.w3.org/2000/svg"
 width="384.000000pt" height="384.000000pt" viewBox="0 0 384.000000 384.000000"
 preserveAspectRatio="xMidYMid meet">
<metadata>
Created by potrace 1.10, written by Peter Selinger 2001-2011
</metadata>
<g transform="translate(0.000000,384.000000) scale(0.100000,-0.100000)"
fill="#777777" stroke="none">
<path d="M346 3705 c-25 -38 -20 -87 12 -121 16 -16 71 -85 122 -154 52 -69
99 -129 106 -135 6 -5 46 -57 89 -115 43 -58 84 -110 91 -116 8 -6 14 -16 14
-23 0 -6 3 -11 8 -11 4 0 48 -54 97 -120 50 -66 93 -120 98 -120 4 0 7 -7 7
-15 0 -8 4 -15 8 -15 5 0 30 -30 57 -67 27 -36 64 -82 82 -102 18 -20 33 -42
33 -49 0 -7 7 -15 15 -18 8 -4 15 -12 15 -20 0 -8 4 -14 8 -14 5 0 30 -30 57
-67 27 -36 64 -82 82 -102 18 -20 33 -42 33 -49 0 -7 7 -15 15 -18 8 -4 15
-12 15 -20 0 -8 4 -14 8 -14 5 0 30 -30 57 -67 27 -36 64 -82 82 -102 18 -20
36 -44 39 -53 3 -10 10 -18 15 -18 5 0 9 -6 9 -14 0 -8 7 -16 15 -20 19 -7 19
-35 0 -42 -8 -4 -15 -12 -15 -19 0 -7 -7 -15 -15 -19 -8 -3 -15 -11 -15 -18 0
-7 -15 -29 -33 -49 -18 -20 -55 -66 -82 -102 -27 -37 -52 -67 -57 -67 -4 0 -8
-6 -8 -14 0 -8 -7 -16 -15 -20 -8 -3 -15 -12 -15 -19 0 -8 -9 -22 -21 -33 -11
-10 -48 -56 -82 -101 -34 -46 -65 -83 -69 -83 -4 0 -8 -5 -8 -11 0 -7 -6 -17
-14 -23 -7 -6 -48 -58 -91 -116 -43 -58 -86 -112 -95 -121 -9 -9 -39 -47 -65
-83 -27 -36 -52 -66 -57 -66 -4 0 -8 -5 -8 -11 0 -11 -50 -81 -80 -110 -9 -9
-39 -47 -65 -83 -27 -36 -52 -66 -57 -66 -4 0 -8 -7 -8 -15 0 -8 -4 -15 -9
-15 -5 0 -12 -8 -15 -17 -3 -10 -21 -34 -39 -54 -18 -20 -55 -66 -82 -102 -27
-37 -52 -67 -57 -67 -4 0 -8 -6 -8 -14 0 -8 -7 -16 -15 -20 -8 -3 -15 -11 -15
-19 0 -7 -13 -26 -28 -43 -86 -90 -111 -146 -77 -174 8 -7 15 -19 15 -26 0
-11 37 -14 204 -14 l204 0 28 37 c15 21 35 45 44 54 9 9 39 47 65 83 27 36 52
66 57 66 4 0 8 5 8 11 0 11 53 85 75 104 6 6 40 48 75 95 35 47 70 91 77 98 7
7 13 16 13 20 0 4 15 23 33 43 18 20 55 66 82 102 27 37 52 67 57 67 4 0 8 6
8 14 0 8 7 16 15 20 8 3 15 12 15 19 0 8 7 21 16 28 9 8 44 50 77 94 33 44 65
85 71 90 7 6 54 66 106 135 51 69 97 127 102 130 4 3 33 39 63 80 60 81 92
105 112 88 7 -6 13 -17 13 -24 0 -8 4 -14 8 -14 5 0 30 -30 57 -66 26 -36 56
-74 65 -83 9 -9 59 -72 110 -141 52 -69 99 -129 105 -135 22 -19 75 -93 75
-104 0 -6 4 -11 8 -11 5 0 29 -28 54 -62 26 -35 62 -81 82 -103 20 -22 39 -48
42 -57 3 -10 10 -18 15 -18 5 0 9 -7 9 -15 0 -8 4 -15 8 -15 5 0 30 -30 57
-67 27 -36 64 -82 82 -102 18 -20 36 -44 39 -53 3 -10 10 -18 15 -18 5 0 9 -7
9 -15 0 -8 4 -15 8 -15 5 0 30 -30 57 -67 27 -36 64 -82 82 -102 18 -20 36
-44 39 -53 3 -10 10 -18 15 -18 5 0 9 -7 9 -15 0 -8 4 -15 8 -15 5 0 23 -20
41 -45 l32 -45 202 0 202 0 18 31 c9 17 17 40 17 50 0 19 -106 170 -136 195
-8 6 -14 16 -14 23 0 6 -4 11 -8 11 -4 0 -35 37 -69 83 -34 45 -71 91 -82 101
-12 11 -21 25 -21 33 0 7 -7 16 -15 19 -8 4 -15 12 -15 20 0 8 -4 14 -8 14 -4
0 -35 37 -69 83 -34 45 -71 91 -82 101 -12 11 -21 25 -21 33 0 7 -7 16 -15 19
-8 4 -15 12 -15 20 0 8 -4 14 -8 14 -5 0 -30 30 -57 67 -27 36 -64 82 -82 102
-18 20 -36 44 -39 54 -3 9 -10 17 -15 17 -5 0 -9 7 -9 15 0 8 -4 15 -8 15 -5
0 -30 30 -58 67 -27 38 -56 75 -64 83 -31 32 -80 98 -80 109 0 6 -4 11 -8 11
-5 0 -30 30 -57 66 -26 36 -56 74 -65 83 -9 9 -52 63 -95 121 -43 58 -83 110
-90 115 -6 6 -14 18 -18 28 -3 9 -11 17 -17 17 -16 0 -12 30 5 36 8 4 15 12
15 20 0 8 3 14 8 14 4 0 47 54 97 120 49 66 93 120 97 120 5 0 8 5 8 11 0 7 6
17 14 23 7 6 48 58 91 116 43 58 86 112 95 121 9 9 39 47 65 83 27 36 52 66
57 66 4 0 8 5 8 11 0 11 50 81 80 110 9 9 39 47 65 83 27 36 52 66 57 66 4 0
8 5 8 11 0 11 50 81 80 110 9 9 39 47 65 83 27 36 52 66 57 66 4 0 8 7 8 15 0
8 4 15 9 15 5 0 12 8 15 18 3 9 21 33 39 53 18 20 55 66 82 102 27 37 52 67
57 67 4 0 8 6 8 14 0 8 7 16 15 20 8 3 15 11 15 18 0 7 12 26 28 43 74 79 81
105 46 163 -14 22 -18 22 -222 22 l-209 0 -43 -60 c-24 -33 -47 -60 -52 -60
-4 0 -8 -6 -8 -14 0 -8 -7 -16 -15 -20 -8 -3 -15 -11 -15 -19 0 -7 -13 -26
-28 -43 -16 -16 -70 -85 -122 -154 -51 -69 -99 -130 -106 -136 -8 -6 -14 -16
-14 -22 0 -5 -7 -12 -15 -16 -8 -3 -15 -11 -15 -18 0 -8 -8 -20 -17 -29 -10
-8 -47 -54 -83 -102 -35 -48 -68 -87 -72 -87 -4 0 -8 -7 -8 -15 0 -8 -4 -15
-9 -15 -5 0 -12 -8 -15 -18 -3 -9 -20 -33 -37 -51 -17 -19 -72 -89 -121 -155
-50 -67 -97 -126 -104 -132 -8 -6 -14 -16 -14 -22 0 -5 -7 -12 -15 -16 -8 -3
-15 -12 -15 -19 0 -8 -9 -22 -21 -33 -11 -10 -48 -56 -82 -101 -73 -99 -97
-107 -136 -43 -13 21 -44 60 -68 87 -23 26 -45 56 -49 66 -3 9 -10 17 -15 17
-5 0 -9 7 -9 15 0 8 -4 15 -8 15 -5 0 -30 30 -57 66 -26 36 -56 74 -65 83 -9
9 -59 72 -110 140 -51 68 -100 131 -109 140 -9 9 -45 56 -81 104 -35 48 -68
87 -72 87 -4 0 -8 7 -8 15 0 9 -7 18 -15 21 -8 4 -15 12 -15 20 0 8 -4 14 -8
14 -5 0 -30 30 -57 67 -27 36 -64 82 -82 102 -18 20 -33 42 -33 49 0 7 -7 15
-15 18 -8 4 -15 12 -15 20 0 8 -4 14 -8 14 -5 0 -30 30 -58 67 -27 38 -56 75
-64 83 -9 9 -28 32 -44 53 l-28 37 -203 0 -203 0 -16 -25z"/>
</g>
</svg>
