<?xml version="1.0" standalone="no"?>
<!DOCTYPE svg PUBLIC "-//W3C//DTD SVG 20010904//EN"
 "http://www.w3.org/TR/2001/REC-SVG-20010904/DTD/svg10.dtd">
<svg version="1.0" xmlns="http://www.w3.org/2000/svg"
 width="384.000000pt" height="384.000000pt" viewBox="0 0 384.000000 384.000000"
 preserveAspectRatio="xMidYMid meet">
<metadata>
Created by potrace 1.10, written by Peter Selinger 2001-2011
</metadata>
<g transform="translate(0.000000,384.000000) scale(0.100000,-0.100000)"
fill="#000000" stroke="none">
<path d="M865 3358 c-13 -20 -15 -143 -15 -1146 0 -618 -2 -1128 -5 -1133 -4
-5 -80 -9 -170 -9 -158 0 -164 -1 -179 -22 -9 -12 -16 -27 -16 -32 0 -14 562
-576 575 -576 5 0 135 125 288 278 356 356 355 352 91 352 -90 0 -165 4 -169
9 -3 5 -5 515 -5 1133 0 1003 -2 1126 -15 1146 -16 21 -21 22 -190 22 -169 0
-174 -1 -190 -22z"/>
<path d="M1916 3358 c-13 -18 -16 -55 -16 -190 0 -226 -22 -208 259 -208 l220
0 20 26 c19 24 21 40 21 186 0 129 -3 163 -16 183 l-16 25 -229 0 c-224 0
-228 0 -243 -22z"/>
<path d="M1916 2518 c-13 -18 -16 -55 -16 -190 0 -155 2 -170 20 -188 19 -19
33 -20 395 -20 362 0 376 1 395 20 18 18 20 33 20 188 0 135 -3 172 -16 190
l-15 22 -384 0 -384 0 -15 -22z"/>
<path d="M1916 1678 c-13 -18 -16 -55 -16 -190 0 -155 2 -170 20 -188 20 -20
33 -20 554 -20 l535 0 20 26 c19 25 21 40 21 188 0 130 -3 166 -16 184 l-15
22 -544 0 -544 0 -15 -22z"/>
<path d="M1916 838 c-13 -18 -16 -55 -16 -190 0 -155 2 -170 20 -188 20 -20
33 -20 710 -20 677 0 690 0 710 20 18 18 20 33 20 188 0 135 -3 172 -16 190
l-15 22 -699 0 -699 0 -15 -22z"/>
</g>
</svg>
