<?xml version="1.0" standalone="no"?>
<!DOCTYPE svg PUBLIC "-//W3C//DTD SVG 20010904//EN"
 "http://www.w3.org/TR/2001/REC-SVG-20010904/DTD/svg10.dtd">
<svg version="1.0" xmlns="http://www.w3.org/2000/svg"
 width="384.000000pt" height="384.000000pt" viewBox="0 0 384.000000 384.000000"
 preserveAspectRatio="xMidYMid meet">
<metadata>
Created by potrace 1.10, written by Peter Selinger 2001-2011
</metadata>
<g transform="translate(0.000000,384.000000) scale(0.100000,-0.100000)"
fill="#7b7b7b" stroke="none">
<path d="M3206 3287 c-10 -7 -614 -607 -1342 -1335 -1405 -1405 -1364 -1361
-1318 -1406 12 -13 26 -16 50 -11 27 5 81 54 273 245 131 132 243 240 249 240
5 0 15 -7 22 -15 7 -8 22 -15 34 -15 11 0 30 -7 40 -15 11 -8 29 -15 40 -15
12 0 30 -7 40 -15 11 -8 31 -15 45 -15 14 0 35 -7 45 -15 11 -8 36 -15 55 -15
20 -1 47 -7 61 -15 14 -8 49 -14 78 -15 29 0 69 -7 89 -15 50 -21 426 -21 463
0 14 8 48 14 76 15 28 0 59 6 70 15 10 8 35 15 55 15 19 0 44 7 55 15 10 8 31
15 45 15 14 0 34 7 45 15 10 8 29 15 40 15 12 0 27 7 34 15 7 8 23 15 35 15
12 0 28 7 35 15 7 8 20 15 30 15 10 0 23 7 30 15 7 8 23 15 37 15 13 0 26 7
29 15 4 8 14 15 24 15 11 0 22 5 25 11 4 5 17 15 28 20 12 5 36 18 52 29 17
11 39 24 50 30 11 6 34 19 50 30 17 11 36 23 44 27 8 3 22 13 30 20 9 8 62 47
118 88 57 41 111 83 121 92 10 10 40 36 66 58 91 74 118 100 235 217 171 171
171 172 171 211 0 31 -15 49 -155 191 -86 86 -160 156 -165 156 -6 0 -10 4
-10 8 0 5 -19 23 -42 40 -24 17 -61 48 -83 68 -22 21 -85 70 -140 111 -55 40
-107 78 -116 85 -25 20 -52 37 -76 48 -13 5 -23 14 -23 20 0 5 -8 10 -19 10
-10 0 -24 7 -31 15 -7 8 -18 15 -25 15 -30 0 -62 73 -35 82 5 2 106 99 225
217 176 176 216 221 221 250 6 28 3 38 -16 53 -26 21 -37 22 -64 5z m-424
-692 c5 -8 16 -15 25 -15 8 0 32 -13 53 -30 21 -16 41 -30 45 -30 4 0 24 -13
45 -30 21 -16 41 -30 45 -30 8 0 167 -119 181 -136 6 -8 16 -14 23 -14 6 0 11
-4 11 -8 0 -5 16 -20 36 -35 42 -29 184 -160 290 -264 58 -58 71 -77 67 -95
-6 -27 -270 -289 -358 -356 -33 -26 -64 -51 -70 -57 -14 -16 -92 -75 -98 -75
-3 0 -21 -13 -39 -30 -18 -16 -36 -30 -41 -30 -5 0 -26 -13 -47 -30 -21 -16
-40 -30 -43 -30 -4 0 -23 -12 -44 -26 -21 -14 -47 -30 -58 -35 -11 -5 -33 -18
-50 -29 -16 -11 -36 -22 -42 -25 -7 -3 -19 -7 -25 -10 -7 -3 -33 -16 -57 -30
-24 -14 -50 -25 -56 -25 -7 0 -18 -7 -25 -15 -7 -8 -23 -15 -35 -15 -12 0 -28
-7 -35 -15 -7 -8 -25 -15 -39 -15 -15 0 -36 -7 -47 -15 -10 -8 -31 -15 -45
-15 -14 0 -34 -7 -45 -15 -10 -8 -34 -15 -52 -15 -18 0 -49 -7 -70 -16 -55
-25 -532 -25 -579 -1 -18 10 -51 17 -75 17 -24 0 -52 7 -62 15 -11 8 -34 15
-50 15 -17 0 -40 7 -50 15 -11 8 -29 15 -41 15 -12 0 -30 7 -41 15 -10 8 -29
15 -40 15 -53 0 -33 31 126 191 l160 161 39 -31 c21 -17 46 -31 54 -31 8 0 20
-7 27 -15 7 -8 21 -15 32 -15 10 0 30 -7 44 -17 37 -24 331 -24 368 0 14 10
34 17 44 17 11 0 25 7 32 15 7 8 20 15 29 15 43 1 240 198 241 241 0 9 7 22
15 29 8 7 15 22 15 33 0 11 8 29 17 39 14 16 17 44 17 188 0 145 -2 172 -17
188 -9 10 -17 30 -17 44 0 14 -7 31 -15 38 -8 7 -15 17 -15 22 0 5 -11 24 -25
42 -14 18 -25 38 -25 44 0 7 53 66 118 131 64 65 135 138 156 161 35 38 42 42
74 36 20 -3 40 -12 44 -21z m-461 -427 c10 -13 18 -28 19 -34 0 -6 7 -17 15
-24 8 -7 15 -24 15 -39 1 -14 7 -37 15 -51 20 -35 20 -189 0 -216 -8 -10 -15
-28 -15 -40 0 -11 -11 -41 -25 -65 -13 -24 -29 -53 -34 -64 -28 -60 -199 -184
-256 -185 -11 -1 -31 -7 -45 -15 -16 -9 -53 -14 -100 -14 -47 0 -84 5 -100 14
-14 8 -34 14 -45 15 -37 0 -135 57 -135 78 0 17 641 661 658 662 8 0 22 -10
33 -22z"/>
<path d="M1671 2965 c-18 -8 -52 -15 -75 -15 -22 -1 -52 -7 -66 -15 -14 -8
-38 -15 -55 -15 -16 0 -39 -7 -49 -15 -11 -8 -32 -15 -47 -15 -14 0 -32 -7
-39 -15 -7 -8 -22 -15 -34 -15 -12 0 -31 -7 -42 -15 -10 -8 -29 -15 -40 -15
-12 0 -27 -7 -34 -15 -7 -8 -20 -15 -30 -15 -10 0 -23 -7 -30 -15 -7 -8 -20
-15 -30 -15 -10 0 -23 -7 -30 -15 -7 -8 -20 -15 -30 -15 -10 0 -20 -7 -24 -15
-3 -8 -14 -15 -24 -15 -10 0 -23 -5 -29 -11 -13 -13 -47 -33 -80 -48 -13 -6
-23 -15 -23 -20 0 -5 -8 -11 -17 -15 -10 -3 -27 -11 -38 -18 -38 -25 -261
-192 -296 -222 -20 -17 -61 -53 -92 -79 -76 -65 -327 -316 -327 -326 0 -5 -7
-11 -15 -15 -21 -8 -21 -84 0 -92 8 -4 15 -12 15 -20 0 -8 4 -14 8 -14 5 0 23
-20 40 -44 73 -101 289 -320 402 -406 25 -19 58 -47 74 -62 17 -15 35 -28 41
-28 6 0 25 -13 43 -30 18 -16 37 -30 41 -30 5 0 14 -7 21 -15 7 -8 29 -15 49
-15 30 0 40 5 53 28 17 28 16 29 -13 65 -17 20 -36 37 -44 37 -7 0 -15 7 -19
15 -3 8 -11 15 -18 15 -8 0 -28 13 -46 30 -18 16 -37 30 -43 30 -5 0 -9 4 -9
8 0 5 -21 24 -47 42 -55 40 -323 304 -377 373 -29 36 -37 54 -32 72 3 13 41
58 84 99 163 159 228 219 269 249 24 17 43 34 43 39 0 4 6 8 14 8 8 0 16 4 18
10 2 5 46 41 98 79 52 39 100 75 107 81 7 5 15 10 18 10 6 0 66 41 75 51 3 3
12 9 20 12 8 4 29 16 45 27 17 10 53 30 82 44 28 15 55 31 58 36 3 6 14 10 24
10 10 0 24 7 31 15 7 8 23 15 35 15 12 0 28 7 35 15 7 8 23 15 35 15 12 0 28
7 35 15 7 8 22 15 34 15 12 0 31 7 42 15 10 8 31 15 45 15 14 0 34 7 45 15 10
8 37 15 60 15 22 0 46 6 52 12 14 14 162 30 277 31 111 1 267 -14 297 -29 15
-8 42 -14 60 -14 18 -1 44 -7 58 -15 14 -8 49 -14 77 -15 48 0 53 2 59 25 9
37 -3 75 -25 75 -10 0 -24 7 -31 15 -7 8 -29 15 -49 15 -20 0 -45 7 -55 15
-11 8 -39 15 -63 15 -24 0 -60 7 -80 15 -51 21 -422 21 -472 0z"/>
<path d="M1850 2511 c-14 -5 -45 -10 -70 -10 -25 -1 -54 -8 -64 -16 -11 -8
-30 -15 -42 -15 -12 0 -27 -7 -34 -15 -7 -8 -17 -15 -22 -15 -23 0 -144 -105
-189 -164 -27 -36 -49 -69 -49 -74 0 -5 -7 -15 -15 -22 -8 -7 -15 -24 -15 -38
0 -14 -7 -34 -16 -43 -14 -15 -17 -45 -18 -168 0 -82 3 -153 6 -157 9 -8 86
-9 95 -1 3 4 5 55 4 114 -1 83 2 113 13 128 9 11 16 29 16 41 0 11 11 41 25
65 13 24 29 53 34 64 20 42 116 126 178 154 11 5 24 15 28 20 3 6 18 11 33 11
15 1 38 7 52 15 17 10 59 14 136 15 106 0 112 1 117 21 3 12 3 34 0 49 -4 23
-11 29 -47 34 -93 13 -132 15 -156 7z"/>
</g>
</svg>
