<?xml version="1.0" standalone="no"?>
<!DOCTYPE svg PUBLIC "-//W3C//DTD SVG 20010904//EN"
 "http://www.w3.org/TR/2001/REC-SVG-20010904/DTD/svg10.dtd">
<svg version="1.0" xmlns="http://www.w3.org/2000/svg"
 width="384.000000pt" height="384.000000pt" viewBox="0 0 384.000000 384.000000"
 preserveAspectRatio="xMidYMid meet">
<metadata>
Created by potrace 1.10, written by Peter Selinger 2001-2011
</metadata>
<g transform="translate(0.000000,384.000000) scale(0.100000,-0.100000)"
fill="#7b7b7b" stroke="none">
<path d="M1675 2935 c-16 -8 -51 -14 -76 -15 -25 0 -54 -7 -65 -15 -10 -8 -35
-15 -54 -15 -19 0 -44 -7 -54 -15 -11 -8 -32 -15 -47 -15 -14 0 -32 -7 -39
-15 -7 -8 -22 -15 -34 -15 -12 0 -31 -7 -42 -15 -10 -8 -29 -15 -42 -15 -12 0
-25 -7 -28 -15 -4 -8 -16 -15 -29 -15 -12 0 -28 -7 -35 -15 -7 -8 -20 -15 -30
-15 -10 0 -23 -7 -30 -15 -7 -8 -20 -15 -30 -15 -10 0 -20 -7 -24 -15 -3 -8
-14 -15 -24 -15 -10 0 -23 -5 -29 -11 -13 -13 -47 -33 -80 -48 -13 -6 -23 -15
-23 -20 0 -5 -8 -11 -17 -15 -24 -8 -39 -18 -178 -120 -120 -89 -149 -113
-259 -209 -84 -74 -316 -307 -316 -316 0 -5 -7 -11 -15 -15 -21 -8 -21 -84 0
-92 8 -4 15 -12 15 -20 0 -8 4 -14 8 -14 5 0 23 -20 40 -44 73 -101 289 -320
402 -406 25 -19 58 -47 74 -62 17 -15 35 -28 41 -28 6 0 25 -13 43 -30 18 -16
37 -30 41 -30 5 0 14 -7 21 -15 7 -8 29 -15 49 -15 30 0 40 5 53 28 17 28 16
29 -13 65 -17 20 -36 37 -44 37 -7 0 -15 7 -19 15 -3 8 -11 15 -18 15 -8 0
-28 13 -46 30 -18 16 -37 30 -43 30 -5 0 -9 4 -9 9 0 5 -9 12 -19 16 -23 7
-351 329 -405 398 -29 36 -37 54 -32 72 3 13 41 58 84 99 163 159 228 219 269
249 24 17 43 34 43 39 0 4 6 8 14 8 8 0 16 4 18 10 2 7 49 43 204 157 20 15
49 33 64 40 8 3 31 19 51 35 20 15 44 28 52 28 8 0 17 7 21 15 3 8 14 15 24
15 11 0 25 6 31 14 7 8 23 17 36 20 14 4 25 11 25 16 0 6 8 10 19 10 10 0 24
7 31 15 7 8 20 15 29 15 10 0 26 7 37 15 10 8 29 15 40 15 12 0 27 7 34 15 7
8 22 15 34 15 12 0 31 7 42 15 10 8 31 15 45 15 14 0 34 7 45 15 10 8 37 15
60 15 22 0 45 5 52 12 13 13 180 31 292 31 121 0 263 -15 285 -29 11 -8 36
-14 55 -14 20 0 45 -7 56 -15 11 -8 42 -14 76 -15 55 0 57 1 63 30 9 39 -2 70
-24 70 -10 0 -24 7 -31 15 -7 8 -29 15 -49 15 -20 0 -45 7 -55 15 -11 8 -41
15 -67 15 -25 0 -63 7 -82 15 -50 21 -417 20 -462 0z"/>
<path d="M2662 2717 c-12 -13 -22 -30 -22 -37 0 -17 50 -70 66 -70 6 0 17 -7
24 -15 7 -8 21 -15 32 -15 10 0 21 -7 24 -15 4 -8 13 -15 21 -15 8 0 32 -13
53 -30 21 -16 41 -30 45 -30 4 0 24 -13 45 -30 21 -16 42 -30 47 -30 5 0 23
-13 41 -30 18 -16 35 -30 38 -30 9 0 104 -75 104 -82 0 -4 7 -8 15 -8 8 0 15
-4 15 -8 0 -5 17 -21 37 -35 39 -28 166 -144 284 -260 100 -98 102 -92 -88
-275 -87 -83 -180 -168 -208 -189 -27 -20 -54 -42 -60 -48 -14 -16 -92 -75
-98 -75 -3 0 -21 -13 -39 -30 -18 -16 -36 -30 -41 -30 -5 0 -26 -13 -47 -30
-21 -16 -41 -30 -45 -30 -3 0 -21 -11 -38 -24 -18 -14 -43 -30 -57 -35 -14 -6
-38 -20 -55 -30 -44 -28 -170 -91 -182 -91 -6 0 -16 -7 -23 -15 -7 -8 -23 -15
-35 -15 -12 0 -28 -7 -35 -15 -7 -8 -25 -15 -40 -15 -15 0 -33 -7 -40 -15 -7
-8 -27 -15 -44 -15 -18 0 -41 -7 -52 -15 -10 -8 -34 -15 -52 -15 -18 0 -45 -6
-60 -14 -22 -11 -185 -28 -282 -28 -91 -1 -289 17 -312 28 -15 8 -46 14 -70
14 -24 0 -52 7 -62 15 -11 8 -34 15 -52 15 -17 0 -37 7 -44 15 -7 8 -27 15
-45 15 -18 0 -38 7 -45 15 -7 8 -23 15 -35 15 -12 0 -28 7 -35 15 -7 8 -23 15
-35 15 -12 0 -28 7 -35 15 -20 25 -75 19 -94 -10 -9 -13 -16 -29 -16 -34 0
-21 53 -71 75 -71 12 0 28 -7 35 -15 7 -8 23 -15 35 -15 12 0 28 -7 35 -15 7
-8 24 -15 39 -15 14 0 35 -7 45 -15 11 -8 31 -15 45 -15 14 0 35 -7 45 -15 11
-8 36 -15 55 -15 20 -1 47 -7 61 -15 14 -8 48 -14 76 -15 28 0 68 -7 87 -15
52 -22 419 -22 470 0 20 8 58 15 84 15 26 0 57 7 67 15 11 8 34 15 51 15 17 0
40 7 51 15 10 8 33 15 50 15 17 0 37 7 44 15 7 8 23 15 35 15 12 0 28 7 35 15
7 8 23 15 35 15 12 0 28 7 35 15 7 8 20 15 30 15 10 0 23 7 30 15 7 8 23 15
36 15 12 0 26 5 29 11 4 5 17 15 28 20 12 5 36 18 52 29 17 11 39 24 50 30 11
6 34 19 50 30 17 11 39 24 50 30 26 13 54 32 76 50 38 32 48 40 54 40 7 0 161
116 185 139 8 9 38 34 64 56 91 74 118 100 235 217 168 169 171 172 171 208 0
21 -10 42 -27 62 -65 70 -264 266 -308 303 -98 82 -140 118 -145 125 -3 4 -52
41 -110 83 -58 42 -112 82 -121 89 -25 20 -52 37 -76 48 -13 5 -23 14 -23 20
0 5 -8 10 -19 10 -10 0 -24 7 -31 15 -7 8 -19 15 -26 15 -8 0 -14 4 -14 10 0
5 -11 12 -25 16 -13 3 -29 12 -36 20 -6 8 -19 14 -29 14 -10 0 -20 7 -24 15
-9 23 -59 18 -84 -8z"/>
<path d="M1855 2480 c-16 -4 -50 -8 -75 -9 -25 -1 -54 -8 -64 -16 -11 -8 -30
-15 -42 -15 -12 0 -27 -7 -34 -15 -7 -8 -17 -15 -22 -15 -23 0 -144 -105 -189
-164 -27 -36 -49 -69 -49 -74 0 -5 -7 -15 -15 -22 -8 -7 -15 -24 -15 -38 0
-14 -7 -34 -16 -43 -14 -15 -17 -45 -18 -168 0 -82 2 -153 6 -157 10 -9 85
-10 94 -1 4 3 6 55 5 114 -1 83 2 113 13 128 9 11 16 29 16 41 0 11 11 41 25
65 13 24 29 53 34 64 11 23 100 112 129 129 116 65 167 80 294 84 114 3 116 4
122 28 12 48 -2 71 -47 77 -99 14 -124 15 -152 7z"/>
<path d="M2250 2272 c0 -39 5 -53 26 -73 14 -13 30 -33 35 -44 16 -33 36 -66
48 -78 6 -6 11 -25 11 -42 0 -16 7 -39 15 -49 21 -27 20 -183 0 -210 -8 -11
-15 -30 -15 -41 0 -12 -11 -42 -25 -66 -13 -24 -29 -53 -34 -64 -11 -23 -108
-119 -131 -129 -8 -3 -35 -17 -59 -31 -24 -14 -54 -25 -65 -25 -12 -1 -32 -7
-46 -15 -33 -19 -167 -19 -200 0 -14 8 -34 14 -46 15 -11 0 -41 11 -65 25 -24
14 -51 28 -59 32 -8 3 -28 19 -43 34 -31 29 -63 39 -103 31 -23 -4 -25 -8 -22
-45 3 -37 9 -46 68 -94 36 -29 72 -53 81 -53 9 0 22 -7 29 -15 7 -8 21 -15 32
-15 10 0 30 -8 44 -17 38 -25 330 -25 368 0 14 9 34 17 44 17 11 0 25 7 32 15
7 8 20 15 29 15 43 1 240 198 241 241 0 9 7 22 15 29 8 7 15 22 15 33 0 11 8
29 17 39 14 16 17 43 17 188 0 145 -3 172 -17 188 -9 10 -17 30 -17 44 0 14
-7 31 -15 38 -8 7 -15 16 -15 21 0 5 -24 41 -52 79 -51 68 -54 70 -95 70 l-43
0 0 -48z"/>
</g>
</svg>
