<?xml version="1.0" encoding="utf-8"?>
<!-- Generator: Adobe Illustrator 16.0.0, SVG Export Plug-In . SVG Version: 6.00 Build 0)  -->
<!DOCTYPE svg PUBLIC "-//W3C//DTD SVG 1.1//EN" "http://www.w3.org/Graphics/SVG/1.1/DTD/svg11.dtd">
<svg version="1.1" id="Layer_1" xmlns="http://www.w3.org/2000/svg" xmlns:xlink="http://www.w3.org/1999/xlink" x="0px" y="0px"
	 width="37px" height="26px" viewBox="0 0 37 26" enable-background="new 0 0 37 26" xml:space="preserve">
<path fill-rule="evenodd" clip-rule="evenodd" fill="#E7E7E7" d="M2,0h33c1.104,0,2,0.896,2,2v22c0,1.104-0.896,2-2,2H2
	c-1.104,0-2-0.896-2-2V2C0,0.896,0.896,0,2,0z"/>
<path fill-rule="evenodd" clip-rule="evenodd" fill="#AEADAE" d="M0,3h37v6H0V3z"/>
<g>
	<g>
		<path fill="#545554" d="M21.391,13.997h-0.605c-0.011,0.17-0.051,0.305-0.119,0.404c-0.069,0.101-0.164,0.184-0.283,0.248
			c-0.097,0.053-0.238,0.092-0.426,0.119s-0.363,0.041-0.527,0.041v0.531h1.211v3.898H19.43v0.594h3.148v-0.594h-1.188V13.997z
			 M25.699,18.452c0.297-0.256,0.584-0.521,0.863-0.795c0.195-0.189,0.361-0.363,0.498-0.52s0.256-0.314,0.357-0.477
			c0.109-0.172,0.191-0.354,0.248-0.545c0.056-0.191,0.084-0.397,0.084-0.619c0-0.492-0.17-0.882-0.508-1.17
			c-0.339-0.287-0.807-0.432-1.402-0.432c-0.289,0-0.588,0.038-0.896,0.113c-0.309,0.076-0.556,0.159-0.74,0.25v0.82h0.039
			c0.263-0.172,0.532-0.299,0.809-0.383c0.275-0.083,0.532-0.125,0.77-0.125c0.356,0,0.635,0.086,0.834,0.256
			c0.199,0.171,0.299,0.407,0.299,0.709c0,0.331-0.093,0.639-0.277,0.924c-0.186,0.285-0.527,0.67-1.027,1.154
			c-0.237,0.232-0.493,0.465-0.768,0.699c-0.275,0.234-0.549,0.469-0.822,0.703v0.816h3.938v-0.668h-3.129
			C25.125,18.946,25.402,18.709,25.699,18.452z M32.879,17.454c-0.081-0.169-0.184-0.31-0.309-0.422
			c-0.112-0.099-0.249-0.182-0.41-0.248c-0.162-0.066-0.305-0.109-0.43-0.131v-0.055c0.31-0.063,0.578-0.214,0.807-0.455
			c0.228-0.24,0.342-0.522,0.342-0.846c0-0.236-0.049-0.443-0.145-0.621c-0.097-0.177-0.238-0.328-0.426-0.453
			c-0.175-0.114-0.37-0.197-0.586-0.25c-0.217-0.052-0.467-0.078-0.75-0.078c-0.289,0-0.588,0.039-0.896,0.115
			c-0.309,0.077-0.556,0.161-0.74,0.252v0.816h0.039c0.247-0.161,0.51-0.286,0.789-0.375c0.278-0.088,0.541-0.133,0.789-0.133
			c0.161,0,0.306,0.014,0.434,0.039c0.127,0.026,0.247,0.073,0.359,0.141c0.106,0.068,0.189,0.154,0.25,0.26
			c0.06,0.105,0.09,0.229,0.09,0.369c0,0.318-0.118,0.56-0.354,0.725c-0.236,0.166-0.552,0.248-0.947,0.248h-0.273v0.648h0.352
			c0.192,0,0.372,0.016,0.539,0.045c0.166,0.03,0.309,0.086,0.426,0.166c0.117,0.078,0.209,0.186,0.275,0.322s0.1,0.31,0.1,0.518
			c0,0.211-0.029,0.386-0.088,0.523c-0.059,0.139-0.148,0.265-0.268,0.379c-0.115,0.107-0.265,0.188-0.449,0.242
			c-0.186,0.055-0.359,0.082-0.523,0.082c-0.279,0-0.568-0.048-0.867-0.145c-0.3-0.096-0.561-0.217-0.781-0.363h-0.059v0.816
			c0.2,0.092,0.457,0.176,0.77,0.252c0.313,0.077,0.63,0.115,0.953,0.115c0.314,0,0.604-0.043,0.869-0.131
			c0.264-0.087,0.494-0.222,0.689-0.404c0.174-0.164,0.31-0.356,0.406-0.578C32.951,18.62,33,18.376,33,18.11
			C33,17.843,32.959,17.624,32.879,17.454z"/>
	</g>
</g>
</svg>
