<?xml version="1.0" standalone="no"?>
<!DOCTYPE svg PUBLIC "-//W3C//DTD SVG 20010904//EN"
 "http://www.w3.org/TR/2001/REC-SVG-20010904/DTD/svg10.dtd">
<svg version="1.0" xmlns="http://www.w3.org/2000/svg"
 width="450.000000pt" height="513.000000pt" viewBox="0 0 450.000000 513.000000"
 preserveAspectRatio="xMidYMid meet">
<metadata>
Created by potrace 1.10, written by Peter Selinger 2001-2011
</metadata>
<g transform="translate(0.000000,513.000000) scale(0.100000,-0.100000)"
fill="#888888" stroke="none">
<path d="M1180 4945 c-41 -6 -93 -21 -116 -33 -103 -53 -192 -171 -209 -277
-4 -27 -11 -111 -14 -185 l-6 -135 -200 -5 c-233 -6 -247 -11 -335 -98 -40
-41 -62 -74 -78 -117 l-22 -60 2 -1665 3 -1665 28 -56 c30 -63 92 -125 159
-161 l43 -23 1855 0 1855 0 52 28 c60 32 125 102 153 165 20 44 20 75 20 1729
l0 1684 -21 47 c-30 65 -122 153 -184 175 -41 14 -84 17 -236 17 l-186 0 -7
31 c-3 17 -6 88 -6 157 0 171 -25 244 -115 337 -71 73 -130 100 -257 116 -181
22 -326 -5 -425 -78 -34 -24 -123 -134 -123 -151 0 -5 -7 -23 -15 -38 -11 -22
-15 -67 -15 -189 0 -88 -4 -166 -8 -173 -7 -10 -110 -12 -483 -10 l-474 3 -6
135 c-8 172 -16 222 -47 284 -33 65 -113 146 -178 178 -88 44 -255 58 -404 33z
m281 -334 l29 -29 0 -390 0 -390 -31 -26 c-29 -24 -37 -26 -134 -26 -97 0
-105 2 -134 26 l-31 26 0 390 0 390 29 29 c29 28 32 29 136 29 104 0 107 -1
136 -29z m1926 5 l28 -24 0 -397 0 -397 -28 -24 c-26 -22 -37 -24 -127 -24
-109 0 -142 10 -159 47 -7 16 -11 146 -11 403 l0 378 26 31 26 31 108 0 c101
0 111 -2 137 -24z m-2139 -1629 l2 -357 -362 2 -363 3 -3 345 c-1 190 0 351 3
358 3 10 80 12 362 10 l358 -3 3 -358z m962 3 l0 -360 -405 0 -405 0 0 353 c0
195 3 357 7 360 3 4 186 7 405 7 l398 0 0 -360z m960 0 l0 -360 -402 2 -403 3
-3 345 c-1 190 0 351 3 357 3 10 93 13 405 13 l400 0 0 -360z m890 7 c3 -192
2 -353 -1 -358 -3 -5 -155 -8 -365 -7 l-359 3 -3 345 c-1 190 0 351 3 358 3
10 80 12 362 10 l358 -3 5 -348z m-2815 -549 c3 -13 4 -194 3 -403 l-3 -380
-360 0 -360 0 -3 380 c-1 209 0 390 3 403 l5 22 355 0 355 0 5 -22z m960 -383
l0 -400 -400 0 -400 0 -3 380 c-1 209 0 390 3 403 l5 22 398 -2 397 -3 0 -400z
m960 0 l0 -400 -383 -3 c-253 -1 -390 1 -402 8 -19 10 -20 24 -20 386 0 241 4
382 10 395 10 19 23 19 403 17 l392 -3 0 -400z m882 397 c19 -12 19 -782 1
-793 -15 -10 -678 -12 -702 -3 -14 5 -16 49 -16 393 0 288 3 390 12 399 14 14
684 17 705 4z m-2809 -967 c9 -3 12 -84 12 -359 0 -313 -2 -355 -16 -360 -9
-3 -167 -6 -353 -6 -249 0 -340 3 -349 12 -9 9 -12 103 -12 360 0 290 2 348
14 355 15 8 681 6 704 -2z m1920 5 c10 0 12 -76 10 -362 l-3 -363 -387 -3
c-343 -2 -388 0 -402 14 -14 14 -16 56 -14 357 3 334 3 342 24 352 16 8 465
11 772 5z m894 -8 c15 -15 10 -705 -5 -714 -21 -13 -691 -10 -705 4 -9 9 -12
103 -12 360 0 336 1 349 19 356 28 10 693 4 703 -6z m-1844 -354 l-3 -363
-380 -3 c-209 -1 -390 0 -402 3 l-23 5 0 354 c0 194 3 356 7 359 3 4 186 7
405 7 l398 0 -2 -362z"/>
</g>
</svg>
