<?xml version="1.0" standalone="no"?>
<!DOCTYPE svg PUBLIC "-//W3C//DTD SVG 20010904//EN"
 "http://www.w3.org/TR/2001/REC-SVG-20010904/DTD/svg10.dtd">
<svg version="1.0" xmlns="http://www.w3.org/2000/svg"
 width="384.000000pt" height="384.000000pt" viewBox="0 0 384.000000 384.000000"
 preserveAspectRatio="xMidYMid meet">
<metadata>
Created by potrace 1.10, written by Peter Selinger 2001-2011
</metadata>
<g transform="translate(0.000000,384.000000) scale(0.100000,-0.100000)"
fill="#000000" stroke="none">
<path d="M268 2751 c-43 -10 -115 -77 -138 -127 -27 -63 -26 -123 4 -182 18
-34 250 -272 848 -869 870 -869 864 -863 955 -863 91 0 89 -1 969 881 719 722
832 840 842 875 28 97 1 180 -82 248 l-48 41 -1662 1 c-913 1 -1673 -1 -1688
-5z"/>
</g>
</svg>
