<?xml version="1.0" standalone="no"?>
<!DOCTYPE svg PUBLIC "-//W3C//DTD SVG 20010904//EN"
 "http://www.w3.org/TR/2001/REC-SVG-20010904/DTD/svg10.dtd">
<svg version="1.0" xmlns="http://www.w3.org/2000/svg"
 width="384.000000pt" height="384.000000pt" viewBox="0 0 384.000000 384.000000"
 preserveAspectRatio="xMidYMid meet">
<metadata>
Created by potrace 1.10, written by Peter Selinger 2001-2011
</metadata>
<g transform="translate(0.000000,384.000000) scale(0.100000,-0.100000)"
fill="#a1a1a1" stroke="none">
<path d="M340 2722 c-16 -2 -67 -45 -142 -120 -126 -125 -140 -150 -119 -214
15 -45 1753 -1784 1794 -1793 15 -4 39 -4 55 -1 38 10 1798 1770 1808 1809 11
45 -13 81 -133 202 l-115 115 -56 0 -57 0 -737 -737 -738 -738 -738 737 c-772
771 -748 750 -822 740z"/>
</g>
</svg>
