<?xml version="1.0" encoding="utf-8"?>
<!-- Generator: Adobe Illustrator 16.0.0, SVG Export Plug-In . SVG Version: 6.00 Build 0)  -->
<!DOCTYPE svg PUBLIC "-//W3C//DTD SVG 1.1//EN" "http://www.w3.org/Graphics/SVG/1.1/DTD/svg11.dtd">
<svg version="1.1" id="Capa_1" xmlns="http://www.w3.org/2000/svg" xmlns:xlink="http://www.w3.org/1999/xlink" x="0px" y="0px"
	 width="26px" height="26px" viewBox="4.095 6.095 26 26" enable-background="new 4.095 6.095 26 26" xml:space="preserve">
<path fill="#777777" d="M19.923,16.267c-0.75-0.828-2.131-1.103-2.131-1.103c-0.227-0.04-0.459-0.07-0.697-0.07
	c-2.206,0-4,1.794-4,4c0,0.239,0.029,0.471,0.07,0.697c0,0,0.29,1.503,1.102,2.132c0.754,0.756,1.759,1.172,2.828,1.172
	c2.206,0,4-1.794,4-4C21.095,18.025,20.64,17.058,19.923,16.267z M17.095,22.095c-0.802,0-1.555-0.313-2.121-0.879
	c-0.536-0.387-0.826-1.599-0.826-1.599c-0.031-0.17-0.054-0.343-0.054-0.523c0-1.653,1.346-3,3-3c0.18,0,0.353,0.023,0.522,0.053
	c0,0,1.017,0.251,1.599,0.826c0.566,0.566,0.879,1.32,0.879,2.122C20.095,20.748,18.75,22.095,17.095,22.095z"/>
<path fill="#777777" d="M28.976,18.772c-0.113-0.134-2.818-3.292-6.55-5.224c0,0-1.203-0.625-2.05-0.877
	c-1.151-0.342-2.242-0.576-3.281-0.576c-6.161,0-11.651,6.404-11.882,6.677c-0.146,0.172-0.158,0.422-0.028,0.609
	c0.069,0.098,1.722,2.445,4.587,4.349c0,0,1.073,0.74,1.861,1.06c1.799,0.858,3.633,1.306,5.462,1.306
	c6.161,0,11.651-6.404,11.883-6.677C29.135,19.232,29.134,18.958,28.976,18.772z M17.095,25.094c-1.678,0-3.362-0.418-5.028-1.204
	c-0.182-0.086-1.743-0.993-1.743-0.993c-2.104-1.398-3.544-3.088-4.083-3.775c1.151-1.25,5.873-6.027,10.854-6.027
	c0.931,0,1.928,0.176,2.962,0.523c0,0,1.391,0.538,1.911,0.819c2.846,1.541,5.17,3.81,5.955,4.658
	C26.732,20.385,22.041,25.094,17.095,25.094z"/>
</svg>
