<?xml version="1.0" encoding="utf-8"?>
<!-- Generator: Adobe Illustrator 16.0.0, SVG Export Plug-In . SVG Version: 6.00 Build 0)  -->
<!DOCTYPE svg PUBLIC "-//W3C//DTD SVG 1.1//EN" "http://www.w3.org/Graphics/SVG/1.1/DTD/svg11.dtd">
<svg version="1.1" id="Capa_1" xmlns="http://www.w3.org/2000/svg" xmlns:xlink="http://www.w3.org/1999/xlink" x="0px" y="0px"
	 width="26px" height="26px" viewBox="4.095 6.095 26 26" enable-background="new 4.095 6.095 26 26" xml:space="preserve">
<g>
	<g>
		<path fill="#777777" d="M19.923,16.267c-0.195-0.195-0.513-0.195-0.707,0c-0.195,0.194-0.195,0.513,0,0.707
			c0.566,0.566,0.879,1.32,0.879,2.122c0,1.653-1.346,3-3,3c-0.802,0-1.555-0.313-2.121-0.879c-0.195-0.195-0.512-0.195-0.708,0
			c-0.195,0.194-0.195,0.512,0,0.707c0.754,0.756,1.759,1.172,2.828,1.172c2.206,0,4-1.794,4-4
			C21.095,18.025,20.679,17.021,19.923,16.267z"/>
	</g>
</g>
<g>
	<g>
		<path fill="#777777" d="M17.792,15.164c-0.227-0.04-0.459-0.07-0.697-0.07c-2.206,0-4,1.794-4,4c0,0.239,0.029,0.471,0.07,0.697
			c0.043,0.242,0.254,0.414,0.491,0.414c0.029,0,0.058-0.002,0.088-0.009c0.271-0.049,0.453-0.308,0.405-0.579
			c-0.031-0.17-0.054-0.343-0.054-0.523c0-1.653,1.346-3,3-3c0.18,0,0.353,0.023,0.522,0.053c0.267,0.054,0.531-0.133,0.58-0.404
			C18.245,15.471,18.063,15.212,17.792,15.164z"/>
	</g>
</g>
<g>
	<g>
		<path fill="#777777" d="M28.976,18.772c-0.113-0.134-2.818-3.292-6.55-5.224c-0.241-0.127-0.546-0.031-0.673,0.215
			c-0.127,0.246-0.031,0.547,0.215,0.674c2.874,1.488,5.17,3.81,5.955,4.658c-1.191,1.29-5.883,5.999-10.828,5.999
			c-1.678,0-3.369-0.404-5.028-1.204c-0.246-0.121-0.547-0.017-0.667,0.232c-0.121,0.248-0.016,0.547,0.233,0.667
			c1.795,0.867,3.633,1.306,5.462,1.306c6.161,0,11.651-6.404,11.883-6.677C29.135,19.232,29.134,18.958,28.976,18.772z"/>
	</g>
</g>
<g>
	<g>
		<path fill="#777777" d="M20.376,12.671c-1.139-0.383-2.242-0.576-3.281-0.576c-6.161,0-11.651,6.404-11.882,6.677
			c-0.146,0.172-0.158,0.422-0.028,0.609c0.069,0.098,1.722,2.445,4.587,4.349c0.085,0.057,0.18,0.084,0.276,0.084
			c0.162,0,0.32-0.078,0.417-0.226c0.153-0.229,0.09-0.54-0.14-0.691c-2.104-1.398-3.544-3.088-4.083-3.775
			c1.151-1.25,5.873-6.027,10.854-6.027c0.931,0,1.928,0.176,2.962,0.523c0.262,0.094,0.546-0.051,0.633-0.313
			C20.779,13.041,20.638,12.759,20.376,12.671z"/>
	</g>
</g>
<g>
	<g>
		<path fill="#777777" d="M25.948,10.241c-0.194-0.195-0.511-0.195-0.706,0l-17,17c-0.195,0.195-0.195,0.512,0,0.708
			c0.098,0.097,0.226,0.146,0.354,0.146s0.256-0.049,0.353-0.146l17-17.001C26.143,10.754,26.143,10.436,25.948,10.241z"/>
	</g>
</g>
</svg>
