<?xml version="1.0" encoding="utf-8"?>
<!-- Generator: Adobe Illustrator 16.0.0, SVG Export Plug-In . SVG Version: 6.00 Build 0)  -->
<!DOCTYPE svg PUBLIC "-//W3C//DTD SVG 1.1//EN" "http://www.w3.org/Graphics/SVG/1.1/DTD/svg11.dtd">
<svg version="1.1" id="Layer_1" xmlns="http://www.w3.org/2000/svg" xmlns:xlink="http://www.w3.org/1999/xlink" x="0px" y="0px"
	 width="72px" height="72px" viewBox="0 0 72 72" enable-background="new 0 0 72 72" xml:space="preserve">
<g>
	<g>
		<path fill-rule="evenodd" clip-rule="evenodd" d="M53.453,71.005c-0.065,0-0.132,0-0.197,0c-0.112-0.064-0.235-0.033-0.354-0.033
			c-15.313-0.002-30.629-0.002-45.942,0c-0.118,0-0.241-0.031-0.354,0.033c-0.087,0-0.175,0-0.263,0
			c-1.04-0.092-1.928-0.535-2.68-1.229c-0.808-0.746-1.324-1.664-1.453-2.775c0-20.689,0-41.378,0-62.068
			C2.307,4.339,2.48,3.774,2.808,3.261C3.61,2.007,4.707,1.196,6.212,0.996c15.791,0,31.581,0,47.372,0
			c0.969,0.048,1.784,0.46,2.51,1.072c0.927,0.781,1.453,1.787,1.647,2.974c0.068,0.411,0.076,0.826,0.076,1.242
			c-0.004,3.695-0.002,7.39-0.002,11.085c0,0.153,0.005,0.307-0.006,0.46c-0.049,0.671-0.471,1.128-1.14,1.237
			c-0.164-0.007-0.331,0.012-0.493-0.035c-0.614-0.226-0.865-0.674-0.864-1.318c0.007-3.903,0.004-7.807,0.004-11.71
			c-0.001-0.764-0.2-1.445-0.79-1.976c-0.439-0.397-0.948-0.616-1.543-0.629c-0.065-0.001-0.131-0.001-0.197-0.001
			c-15.241,0-30.483,0.001-45.725-0.002c-0.531,0-1.018,0.108-1.451,0.425C4.979,4.282,4.63,4.893,4.612,5.683
			C4.61,5.749,4.611,5.814,4.611,5.879c0,20.085,0.001,40.17-0.005,60.256c0,0.598,0.159,1.123,0.535,1.578
			c0.463,0.559,1.064,0.857,1.796,0.887c0.098,0.002,0.196,0.002,0.295,0.002c15.133,0,30.265-0.002,45.396,0
			c0.522,0,1.028-0.059,1.484-0.334c0.813-0.49,1.17-1.24,1.199-2.164c0.016-0.48,0.003-0.963,0.004-1.443c0-3.346,0-6.689,0-10.037
			c0-0.121-0.001-0.24,0-0.361c0.01-0.82,0.354-1.223,1.164-1.361c0.929,0.096,1.331,0.521,1.332,1.445
			c0.006,3.959,0.014,7.916-0.002,11.873c-0.009,2.049-1.297,3.848-3.206,4.576C54.229,70.94,53.835,70.929,53.453,71.005z"/>
		<path fill-rule="evenodd" clip-rule="evenodd" d="M56.543,21.589c6.34,0.578,11.443,5.021,12.896,11.228
			c0.139,0.596,0.229,1.201,0.285,1.811c0.006,0.059-0.027,0.135,0.065,0.158c0,0.132,0,0.263,0,0.395
			c-0.055,0.176-0.055,0.35,0,0.525c0,0.197,0,0.393,0,0.59c-0.054,0.152-0.054,0.307,0,0.459c0,0.152,0,0.307,0,0.459
			c-0.151,0.33-0.118,0.693-0.183,1.039c-1.024,5.484-4.143,9.244-9.317,11.305c-1.204,0.479-2.472,0.691-3.751,0.846
			c-0.438,0.16-0.9,0.174-1.352,0.152c-1.047-0.049-2.093-0.141-3.116-0.389c-0.085-0.02-0.17-0.039-0.253-0.066
			c-0.205-0.102-0.371-0.012-0.542,0.1c-0.821,0.535-1.693,0.971-2.597,1.35c-1.57,0.691-3.222,1.094-4.911,1.354
			c-0.173,0.025-0.349,0.016-0.523,0.014c-0.576-0.01-0.958-0.275-1.151-0.799c-0.171-0.457-0.041-1.012,0.349-1.344
			c0.685-0.586,1.249-1.277,1.816-1.971c0.424-0.541,0.815-1.105,1.201-1.674c0.152-0.225,0.146-0.373-0.053-0.563
			c-0.7-0.658-1.353-1.359-1.911-2.146c-1.344-1.896-2.208-3.98-2.532-6.283c-0.035-0.25-0.071-0.498-0.065-0.75
			c0.002-0.156,0.007-0.311-0.045-0.463c-0.021-0.109-0.031-0.221-0.026-0.336c0.004-0.391,0.002-0.781,0-1.172
			c-0.008-0.131,0.001-0.262,0.024-0.39c0.04-0.131,0.057-0.267,0.041-0.403c0.021-0.892,0.221-1.753,0.461-2.604
			c0.603-2.137,1.658-4.024,3.134-5.686c1.862-2.098,4.139-3.526,6.83-4.304c0.125-0.036,0.249-0.082,0.375-0.117
			c0.036-0.009,0.071-0.017,0.107-0.024c1.382-0.37,2.789-0.493,4.214-0.445C56.198,21.45,56.385,21.473,56.543,21.589z"/>
		<path fill-rule="evenodd" clip-rule="evenodd" fill="#3F3F3F" d="M6.605,71.005C6.7,70.89,6.83,70.942,6.943,70.942
			c15.324-0.004,30.65-0.004,45.976,0c0.113,0,0.243-0.053,0.337,0.063C37.706,71.005,22.155,71.005,6.605,71.005z"/>
		<path fill-rule="evenodd" clip-rule="evenodd" fill="#3B3B3B" d="M69.79,35.706c-0.099-0.176-0.104-0.35,0-0.525
			C69.79,35.356,69.79,35.53,69.79,35.706z"/>
		<path fill-rule="evenodd" clip-rule="evenodd" fill="#3D3D3D" d="M69.79,36.755c-0.106-0.152-0.103-0.307,0-0.459
			C69.79,36.448,69.79,36.603,69.79,36.755z"/>
		<path fill-rule="evenodd" clip-rule="evenodd" fill="#1A57B8" d="M56.527,52.899c-0.001,0.027-0.002,0.057-0.003,0.084
			c-0.771,0.115-1.111,0.504-1.111,1.277c-0.001,3.936,0,7.871-0.001,11.807c0,1.566-1.068,2.641-2.63,2.641
			c-15.219,0-30.438-0.006-45.658,0.01c-1.553,0.002-2.643-1.254-2.642-2.639c0.022-20.063,0.021-40.126,0.002-60.19
			C4.482,4.437,5.652,3.268,7.102,3.27c15.23,0.021,30.461,0.021,45.691,0c1.316-0.002,2.639,1.005,2.628,2.652
			c-0.025,3.882,0.002,7.763-0.018,11.644c-0.004,0.669,0.206,1.143,0.825,1.413c-0.107,0.104-0.244,0.088-0.372,0.084
			c-1.303-0.03-2.593,0.071-3.872,0.317c-0.104,0.021-0.216,0.046-0.321-0.012c-0.088-0.144-0.089-0.284,0.018-0.421
			c1.018-0.427,1.076-0.516,1.076-1.631c0-1.705,0-3.412,0-5.117c0-0.153,0.004-0.307-0.016-0.46
			c-0.068-0.548-0.435-0.913-0.984-0.979c-0.175-0.021-0.35-0.014-0.524-0.014c-14.182,0-28.363,0-42.545,0
			c-1.207,0-1.582,0.375-1.582,1.596c-0.001,15.767,0,31.535-0.001,47.3c0,0.254,0.007,0.504,0.071,0.75
			c0.123,0.469,0.45,0.748,0.931,0.787c0.143,0.012,0.284,0.008,0.427,0.008c14.29,0,28.582,0,42.872,0
			c0.121,0,0.241,0.002,0.361-0.004c0.521-0.031,0.874-0.346,0.966-0.861c0.026-0.143,0.024-0.283,0.024-0.426
			c0-1.826,0-3.652,0-5.479c-0.001-0.131,0.001-0.262-0.019-0.393c-0.081-0.535-0.419-0.859-0.958-0.912
			c-0.077-0.008-0.154-0.008-0.228-0.033c-0.129-0.227,0.061-0.367,0.145-0.537c0.568,0.018,1.118,0.166,1.682,0.229
			c0.946,0.102,1.892,0.121,2.841,0.074C56.331,52.841,56.437,52.813,56.527,52.899z"/>
		<path fill-rule="evenodd" clip-rule="evenodd" fill="#8792AF" d="M51.694,19.359c0.431-0.085,0.859-0.194,1.293-0.247
			c1.076-0.128,2.157-0.174,3.24-0.133c0.147,0.003,0.295,0.005,0.442,0.007c-0.042,0.047-0.127,0.043-0.145,0.121
			c-0.118,0.11-0.262,0.085-0.402,0.073c-1.446-0.124-2.871,0.034-4.283,0.336c-0.019,0.004-0.038,0.007-0.057,0.012
			c-0.038,0.006-0.074-0.002-0.108-0.021C51.644,19.454,51.643,19.403,51.694,19.359z"/>
		<path fill-rule="evenodd" clip-rule="evenodd" fill="#7E8398" d="M51.752,50.005c1.212,0.264,2.436,0.443,3.68,0.436
			c0.369-0.002,0.738-0.023,1.107-0.037c-0.005,0.809-0.009,1.617-0.013,2.426c-0.826,0.162-1.653,0.107-2.485,0.045
			c-0.464-0.035-0.925-0.076-1.381-0.148c-0.323-0.053-0.669-0.037-0.956-0.242c-0.087-0.174-0.061-0.361-0.062-0.547
			c-0.003-0.5-0.004-1,0.001-1.502C51.646,50.284,51.625,50.126,51.752,50.005z"/>
		<path fill-rule="evenodd" clip-rule="evenodd" fill="#8993AE" d="M51.729,52.495c0.621,0.199,1.271,0.248,1.911,0.328
			c0.711,0.092,1.429,0.074,2.145,0.078c0.253,0.002,0.491-0.088,0.742-0.072c0,0.023,0,0.047,0.001,0.07
			c-0.691,0.111-1.392,0.088-2.082,0.051c-0.925-0.049-1.851-0.131-2.751-0.375c-0.024-0.014-0.034-0.033-0.029-0.061
			C51.681,52.491,51.702,52.485,51.729,52.495z"/>
		<path fill-rule="evenodd" clip-rule="evenodd" fill="#7E8398" d="M51.743,19.5c0.255-0.259,0.609-0.203,0.914-0.248
			c1.011-0.155,2.03-0.252,3.057-0.21c0.271,0.011,0.541,0.042,0.812,0.064c0.007,0.828,0.012,1.654,0.018,2.482
			c-1.532-0.127-3.046-0.006-4.543,0.342c-0.085,0.02-0.169,0.039-0.254,0.058c-0.08-0.085-0.089-0.193-0.09-0.303
			c-0.003-0.627-0.003-1.253,0-1.881C51.657,19.697,51.662,19.588,51.743,19.5z"/>
		<path fill-rule="evenodd" clip-rule="evenodd" fill="#DFDFDF" d="M51.683,52.501c0.004,0.025,0.008,0.051,0.012,0.074
			c-0.044,0.15,0.087,0.373-0.177,0.434c-0.037,0.072-0.104,0.113-0.173,0.145c-0.501,0.234-0.672,0.652-0.672,1.176
			c0.001,1.357,0.001,2.713,0,4.068c-0.001,0.666-0.04,0.707-0.703,0.707c-13.342,0-26.683,0-40.023,0
			c-0.658,0-0.692-0.035-0.692-0.715c0-8.967,0-17.934,0-26.901c0-5.959,0-11.918,0-17.878c0-0.771,0.01-0.779,0.793-0.779
			c13.275,0,26.55,0,39.826,0c0.791,0,0.8,0.009,0.8,0.808c0,1.278,0.018,2.558-0.007,3.838c-0.014,0.689,0.185,1.2,0.894,1.415
			c0.054,0.016,0.095,0.054,0.122,0.105c0.004,0.12,0.009,0.241,0.013,0.361c-0.002,0.043-0.004,0.087-0.006,0.13
			c-0.092,0.13-0.242,0.139-0.377,0.171c-2.532,0.604-4.788,1.762-6.78,3.427c-2.385,1.991-4.085,4.462-5.119,7.396
			c-0.441,1.254-0.677,2.551-0.862,3.859c-0.044,0.136-0.034,0.274-0.028,0.411c0,0.169,0.006,0.338-0.027,0.504
			c-0.067,0.496-0.063,0.992,0,1.488c-0.002,0.283,0.141,0.564,0.021,0.85c-0.172,0.057-0.201-0.096-0.253-0.188
			c-0.568-0.982-1.277-1.84-2.127-2.6c-1.1-0.984-2.411-0.892-3.405,0.072c-0.33,0.321-0.655,0.633-1.077,0.844
			c-1.498,0.742-3.167,0.496-4.354-0.687c-0.395-0.393-0.804-0.729-1.362-0.864c-0.703-0.169-1.342-0.029-1.886,0.409
			c-2.115,1.701-3.326,3.902-3.578,6.615c-0.135,1.461-0.046,2.926-0.053,4.391c-0.002,0.686,0.461,1.111,1.153,1.111
			c5.586,0.004,11.173,0.004,16.76,0c0.714,0,1.111-0.406,1.114-1.125c0.005-0.973,0-1.945,0.002-2.918
			c0-0.152-0.015-0.307,0.035-0.455c0.072-0.133,0.135-0.07,0.187,0.016c0.066,0.113,0.099,0.242,0.15,0.361
			c0.905,2.115,2.205,3.957,3.84,5.568c0.231,0.227,0.549,0.367,0.685,0.689c-0.56,0.713-1.164,1.387-1.835,2
			c-0.392,0.357-0.51,0.848-0.324,1.309c0.18,0.445,0.592,0.727,1.116,0.693c1.26-0.078,2.476-0.391,3.679-0.75
			c0.573-0.172,1.137-0.379,1.686-0.617c0.695,0.201,1.358,0.506,2.064,0.682c0.221,0.055,0.44,0.115,0.659,0.174
			C51.504,52.356,51.633,52.368,51.683,52.501z"/>
		<path fill-rule="evenodd" clip-rule="evenodd" fill="#FEC750" d="M46.5,49.813c0.61-0.832,1.156-1.656,1.641-2.52
			c0.429-0.764,0.334-1.238-0.347-1.795c-3.105-2.543-4.668-5.822-4.601-9.838c0.094-5.718,4.405-10.687,10.058-11.646
			c6.543-1.111,12.735,3.099,14.008,9.623c0.79,4.05-0.27,7.656-3.089,10.679c-2.264,2.428-5.101,3.68-8.422,3.82
			c-1.344,0.057-2.658-0.127-3.942-0.516c-0.456-0.139-0.846-0.072-1.231,0.205c-1.194,0.865-2.516,1.48-3.906,1.953
			C46.628,49.794,46.586,49.798,46.5,49.813z"/>
		<path fill-rule="evenodd" clip-rule="evenodd" fill="#F0F9E4" d="M38.488,37.618c0.019-0.291-0.104-0.574-0.064-0.867
			c-0.047-0.5-0.047-1.002,0-1.502c0.001-0.176,0.003-0.352,0.004-0.527c0.084-0.121-0.014-0.272,0.063-0.395
			c0.139-1.537,0.496-3.024,1.054-4.462c0.664-1.709,1.584-3.278,2.76-4.684c1.182-1.412,2.563-2.604,4.138-3.574
			c1.633-1.005,3.375-1.717,5.246-2.119v0.003c0.035,0.832,0.05,1.663-0.008,2.494c-0.543,0.241-1.126,0.366-1.681,0.586
			c-1.114,0.442-2.149,1.012-3.118,1.713c-0.75,0.543-1.46,1.133-2.081,1.817c-1.255,1.381-2.263,2.922-2.936,4.671
			c-0.387,1.006-0.666,2.036-0.815,3.106c-0.033,0.236-0.036,0.476-0.074,0.712c-0.055,0.135,0.008,0.282-0.045,0.417
			c-0.007,0.124-0.013,0.247-0.019,0.37c-0.041,0.416-0.042,0.83,0,1.246c0.004,0.105,0.008,0.215,0.012,0.32
			c0.072,0.15-0.01,0.314,0.051,0.467c0.204,2.486,1.081,4.732,2.469,6.787c0.581,0.859,1.287,1.623,2.053,2.324
			c0.217,0.199,0.275,0.332,0.073,0.613c-0.407,0.564-0.782,1.154-1.223,1.699c-0.832-0.646-1.534-1.418-2.194-2.23
			c-0.869-1.068-1.588-2.236-2.178-3.48c-0.153-0.324-0.28-0.658-0.42-0.99c-0.182-0.201-0.084-0.447-0.109-0.674
			c0.009-0.146,0.018-0.293-0.029-0.434c-0.165-1.082-0.419-2.139-0.904-3.131C38.47,37.81,38.422,37.716,38.488,37.618z"/>
		<path fill-rule="evenodd" clip-rule="evenodd" fill="#FEFEFE" d="M51.683,52.501c-0.956-0.266-1.92-0.508-2.833-0.908
			c-0.071-0.031-0.14-0.055-0.182-0.123c0.948-0.414,1.869-0.879,2.735-1.447c0.115-0.074,0.226-0.141,0.349-0.018
			c-0.008,0.83-0.016,1.66-0.023,2.49C51.712,52.495,51.697,52.497,51.683,52.501z"/>
		<path fill-rule="evenodd" clip-rule="evenodd" fill="#DFDFDF" d="M51.681,21.986c0.003-0.831,0.006-1.662,0.008-2.494
			c0.019,0.002,0.037,0.005,0.055,0.009c0.001,0.83,0.002,1.659,0.003,2.488C51.725,21.988,51.703,21.987,51.681,21.986z"/>
		<path fill-rule="evenodd" clip-rule="evenodd" fill="#E7EEDE" d="M40.912,36.624c-0.094-0.416-0.092-0.83,0-1.246
			C40.912,35.794,40.912,36.208,40.912,36.624z"/>
		<path fill-rule="evenodd" clip-rule="evenodd" fill="#DFDFDF" d="M40.975,37.411c-0.102-0.146-0.048-0.311-0.051-0.467
			C40.982,37.097,40.982,37.253,40.975,37.411z"/>
		<path fill-rule="evenodd" clip-rule="evenodd" fill="#DFDFDF" d="M40.931,35.008c-0.008-0.142-0.055-0.286,0.045-0.417
			C40.985,34.733,40.974,34.873,40.931,35.008z"/>
		<path fill-rule="evenodd" clip-rule="evenodd" d="M51.682,18.998c-0.75-0.105-1.114-0.521-1.115-1.28
			c-0.001-1.498-0.005-2.997,0.005-4.495c0.002-0.223-0.044-0.29-0.281-0.29c-13.559,0.006-27.118,0.006-40.678-0.004
			c-0.32,0-0.284,0.152-0.284,0.355c0.002,8.846,0.001,17.692,0.001,26.54c0,6.275,0.002,12.553-0.006,18.83
			c0,0.287,0.056,0.385,0.37,0.383c13.515-0.008,27.031-0.008,40.547,0c0.281,0,0.335-0.078,0.332-0.342
			c-0.014-1.498-0.009-2.996-0.005-4.494c0.002-0.645,0.337-1.055,0.949-1.191c0.909-0.025,1.345,0.398,1.346,1.318
			c0.001,1.879,0.001,3.76,0,5.641c-0.001,0.924-0.414,1.334-1.34,1.334c-14.378,0-28.755-0.004-43.133,0.014
			c-0.866,0-1.375-0.496-1.374-1.396c0.01-7.105,0.005-14.213,0.005-21.32c0-8.812,0.001-17.625-0.001-26.436
			c0-0.231,0.006-0.463,0.065-0.685c0.12-0.456,0.561-0.789,1.071-0.825c0.099-0.007,0.197-0.003,0.296-0.003
			c14.334,0,28.667,0,43.001,0c0.987,0,1.409,0.425,1.409,1.423c0,1.869,0.001,3.738,0,5.608
			C52.861,18.499,52.481,18.918,51.682,18.998z"/>
		<path fill-rule="evenodd" clip-rule="evenodd" d="M30.122,5.808c0.683,0.027,1.525-0.056,2.362,0.036
			c0.627,0.068,1.02,0.518,1.022,1.116c0.003,0.6-0.392,1.044-1.008,1.131c-0.119,0.018-0.238,0.033-0.358,0.033
			c-1.474,0.002-2.948,0.005-4.423,0c-0.748-0.003-1.194-0.341-1.311-0.974c-0.111-0.604,0.302-1.199,0.907-1.302
			c0.466-0.08,0.938-0.03,1.405-0.04C29.135,5.801,29.55,5.808,30.122,5.808z"/>
		<path fill-rule="evenodd" clip-rule="evenodd" d="M29.93,66.149c-0.786,0-1.572,0.002-2.359,0
			c-0.664-0.002-1.166-0.467-1.192-1.098c-0.026-0.635,0.473-1.18,1.144-1.186c1.616-0.016,3.232-0.014,4.849,0
			c0.669,0.004,1.154,0.531,1.137,1.184c-0.018,0.629-0.521,1.098-1.186,1.1C31.524,66.151,30.727,66.149,29.93,66.149z"/>
		<path fill-rule="evenodd" clip-rule="evenodd" d="M22.712,5.843c0.638,0.004,1.133,0.511,1.128,1.152
			c-0.005,0.605-0.527,1.126-1.132,1.13c-0.65,0.004-1.158-0.511-1.151-1.167C21.563,6.31,22.052,5.838,22.712,5.843z"/>
		<path fill-rule="evenodd" clip-rule="evenodd" d="M39.541,41.419c0.004,0.24,0.01,0.477,0.014,0.715
			c0,1.125,0.001,2.252-0.001,3.379c-0.002,0.854-0.438,1.291-1.288,1.291c-5.543,0-11.086,0-16.628,0
			c-0.862,0-1.314-0.449-1.306-1.318c0.014-1.42-0.074-2.842,0.049-4.26c0.242-2.779,1.482-5.035,3.665-6.76
			c0.903-0.714,2.242-0.586,3.077,0.271c0.577,0.591,1.213,1.072,2.038,1.232c1.277,0.248,2.411-0.045,3.339-0.98
			c0.456-0.459,0.941-0.835,1.604-0.938c0.689-0.107,1.3,0.058,1.84,0.485c1.068,0.845,1.906,1.882,2.544,3.083
			c0.321,0.768,0.667,1.529,0.817,2.357c0.063,0.35,0.125,0.697,0.188,1.047C39.54,41.149,39.469,41.294,39.541,41.419z"/>
		<path fill-rule="evenodd" clip-rule="evenodd" d="M29.947,20.341c3.353,0.001,5.978,2.668,5.977,6.073
			c-0.001,3.228-2.714,5.883-6.011,5.878c-3.382-0.006-6.021-2.863-5.946-6.141C24.04,22.988,26.703,20.34,29.947,20.341z"/>
		<path fill-rule="evenodd" clip-rule="evenodd" d="M33.548,52.841c-1.574,0-3.146,0-4.72,0c-0.735,0-1.219-0.439-1.227-1.109
			c-0.008-0.688,0.479-1.164,1.215-1.164c3.168-0.004,6.337-0.004,9.505,0c0.659,0,1.135,0.383,1.219,0.957
			c0.083,0.57-0.226,1.08-0.755,1.266c-0.15,0.053-0.301,0.051-0.453,0.051C36.737,52.841,35.142,52.841,33.548,52.841z"/>
		<path fill-rule="evenodd" clip-rule="evenodd" d="M22.708,52.841c-0.416,0-0.831,0.004-1.247-0.002
			c-0.618-0.006-1.093-0.469-1.129-1.09c-0.033-0.555,0.406-1.115,0.984-1.154c0.915-0.066,1.836-0.066,2.751-0.002
			c0.604,0.043,1.007,0.578,0.975,1.189c-0.029,0.592-0.514,1.051-1.121,1.059C23.517,52.845,23.112,52.841,22.708,52.841z"/>
		<path fill-rule="evenodd" clip-rule="evenodd" fill="#DFE8D1" d="M38.424,35.249c0,0.5,0,1.002,0,1.502
			C38.322,36.251,38.322,35.749,38.424,35.249z"/>
		<path fill-rule="evenodd" clip-rule="evenodd" fill="#E6F1D7" d="M38.491,34.328c-0.018,0.132,0.054,0.277-0.063,0.395
			C38.448,34.59,38.376,34.444,38.491,34.328z"/>
		<path fill-rule="evenodd" clip-rule="evenodd" fill="#FEA91C" d="M65.065,35.979c0.162,5.201-4.287,10.021-10.171,9.764
			c-4.98-0.215-9.454-4.268-9.311-10.088c0.123-5.007,4.297-9.549,10.051-9.416C60.697,26.356,65.187,30.61,65.065,35.979z"/>
		<path fill-rule="evenodd" clip-rule="evenodd" fill="#DFDFDF" d="M39.541,41.419c-0.05-0.129-0.063-0.262-0.048-0.396
			C39.586,41.146,39.54,41.284,39.541,41.419z"/>
		<path fill-rule="evenodd" clip-rule="evenodd" fill="#A4DCFE" d="M27.738,37.933c1.2,0.426,2.419,0.547,3.666,0.223
			c1.107-0.285,2.056-0.84,2.843-1.664c0.164-0.172,0.262-0.191,0.445-0.027c1.655,1.471,2.547,3.295,2.563,5.523
			c0.007,0.766-0.002,1.531,0.005,2.297c0.001,0.162-0.031,0.229-0.213,0.227c-3.554-0.006-7.107-0.008-10.661-0.01
			c-0.011,0-0.021-0.006-0.032-0.008c-0.07-0.076-0.093-0.172-0.091-0.271c0.018-1.143-0.077-2.287,0.126-3.424
			c0.171-0.957,0.521-1.842,0.99-2.686C27.457,37.972,27.546,37.845,27.738,37.933z"/>
		<path fill-rule="evenodd" clip-rule="evenodd" fill="#91D5FE" d="M27.738,37.933c-0.147-0.018-0.204,0.08-0.267,0.191
			c-0.762,1.359-1.151,2.811-1.119,4.371c0.014,0.666,0.002,1.332,0.002,1.998c-1.179,0.006-2.357,0.01-3.536,0.016
			c-0.133,0.002-0.199-0.031-0.194-0.182c0.043-1.316-0.12-2.643,0.189-3.945c0.377-1.578,1.187-2.891,2.422-3.943
			c0.125-0.105,0.221-0.158,0.352-0.012C26.185,37.099,26.933,37.558,27.738,37.933z"/>
		<path fill-rule="evenodd" clip-rule="evenodd" fill="#A4DCFE" d="M29.438,22.667c1.745-0.229,3.351,0.728,3.974,2.366
			c0.601,1.579,0.006,3.405-1.42,4.354c-0.098,0.065-0.209,0.112-0.314,0.168c-0.452-0.101-0.812-0.38-1.162-0.651
			c-1.757-1.359-2.336-3.905-1.354-5.885C29.229,22.881,29.283,22.735,29.438,22.667z"/>
		<path fill-rule="evenodd" clip-rule="evenodd" fill="#91D5FE" d="M29.438,22.667c-0.857,1.531-0.901,3.092-0.116,4.656
			c0.447,0.891,1.148,1.555,2.029,2.023c0.113,0.061,0.251,0.087,0.326,0.208c-1.987,1.197-4.778-0.04-5.318-2.361
			C25.858,25.044,27.281,22.95,29.438,22.667z"/>
		<path fill-rule="evenodd" clip-rule="evenodd" d="M58.619,36.116c-0.34,0.012-0.808-0.082-1.25-0.281
			c-0.143-0.064-0.226-0.047-0.336,0.064c-1.108,1.117-2.223,2.23-3.34,3.34c-0.13,0.129-0.144,0.213-0.004,0.342
			c0.256,0.238,0.5,0.49,0.743,0.74c0.451,0.467,0.454,1.131,0.012,1.582c-0.458,0.471-1.129,0.484-1.606,0.029
			c-0.262-0.248-0.518-0.504-0.765-0.768c-0.111-0.117-0.185-0.135-0.304-0.004c-0.229,0.25-0.474,0.484-0.717,0.721
			c-0.508,0.498-1.188,0.51-1.657,0.031c-0.45-0.459-0.438-1.148,0.049-1.635c1.952-1.961,3.908-3.918,5.87-5.868
			c0.182-0.18,0.236-0.311,0.137-0.577c-0.92-2.446,0.933-4.978,3.545-4.809c1.476,0.097,2.55,0.882,3.076,2.269
			c0.518,1.365,0.265,2.637-0.742,3.722C60.642,35.759,59.775,36.11,58.619,36.116z"/>
		<path fill-rule="evenodd" clip-rule="evenodd" fill="#FEDB64" d="M58.769,31.298c0.717,0.002,1.271,0.574,1.262,1.301
			c-0.009,0.679-0.575,1.243-1.258,1.254c-0.689,0.011-1.289-0.595-1.283-1.298C57.495,31.856,58.064,31.295,58.769,31.298z"/>
	</g>
</g>
</svg>
