<?xml version="1.0" encoding="utf-8"?>
<!-- Generator: Adobe Illustrator 16.0.0, SVG Export Plug-In . SVG Version: 6.00 Build 0)  -->
<!DOCTYPE svg PUBLIC "-//W3C//DTD SVG 1.1//EN" "http://www.w3.org/Graphics/SVG/1.1/DTD/svg11.dtd">
<svg version="1.1" id="Layer_1" xmlns="http://www.w3.org/2000/svg" xmlns:xlink="http://www.w3.org/1999/xlink" x="0px" y="0px"
	 width="80px" height="80px" viewBox="0 0 80 80" enable-background="new 0 0 80 80" xml:space="preserve">
<g>
	<path fill-rule="evenodd" clip-rule="evenodd" d="M24.681,67.311c16.282,0,32.563,0,48.846,0c0.85-0.115,1.649-0.377,2.381-0.832
		c1.514-0.938,2.52-2.254,2.988-3.977c0.066-0.248,0.038-0.506,0.114-0.748c0-9.264,0-18.523,0-27.787
		c-0.073-1.234-0.561-2.308-1.321-3.257c-1.178-1.472-2.714-2.288-4.595-2.478c-1.181-0.119-2.361-0.057-3.542-0.062
		c-3.021-0.014-6.043-0.01-9.064,0.001c-0.361,0.001-0.649-0.094-0.934-0.322c-5.035-4.041-10.076-8.076-15.123-12.104
		c-1.984-1.584-4.239-2.566-6.751-2.956c-0.383-0.06-0.773-0.025-1.154-0.102c-0.024,0-0.048,0-0.073,0
		c-0.17,0.079-0.349,0.02-0.523,0.037c-11.271,0-22.541,0-33.81,0c-0.711,0.011-1.082,0.377-1.093,1.084c0,7.008,0,14.015,0,21.022
		c-0.018,0.174,0.042,0.354-0.038,0.524c0,0.049,0,0.098,0,0.146c0.082,0.782,0.131,1.565,0.325,2.338
		c0.727,2.893,2.157,5.374,4.342,7.395c2.417,2.238,5.272,3.557,8.56,3.902c1.433,0.15,2.872,0.035,4.309,0.066
		c0.568,0.012,0.57,0.002,0.57,0.563c0,3.705-0.001,7.408,0,11.113c0.001,2.889,2.082,5.58,4.873,6.313
		C24.202,67.254,24.453,67.211,24.681,67.311z"/>
	<path fill-rule="evenodd" clip-rule="evenodd" fill="#3F3F3F" d="M2.005,12.757c0.194,0.001,0.389,0.005,0.583,0.005
		c10.987,0,21.975,0,32.962-0.001c0.158,0,0.316-0.008,0.475-0.012c0.016-0.023,0.011-0.044-0.01-0.061c-11.333,0-22.667,0-34.001,0
		C1.988,12.708,1.987,12.731,2.005,12.757z"/>
	<path fill-rule="evenodd" clip-rule="evenodd" d="M1.05,34.927c0.005-0.171,0.012-0.341,0.012-0.512
		c0.003-6.88,0.005-13.759,0.007-20.64c0-0.023-0.008-0.047-0.012-0.071c-0.018-0.018-0.034-0.022-0.048-0.015
		c-0.013,0.008-0.02,0.016-0.02,0.022c0,7.069,0,14.138,0,21.205C1,34.938,1.013,34.947,1.027,34.942
		C1.042,34.938,1.05,34.933,1.05,34.927z"/>
	<path fill-rule="evenodd" clip-rule="evenodd" fill="#7F7F7F" d="M36.015,12.689c0.006,0.02,0.01,0.039,0.01,0.061
		c0.144-0.013,0.304,0.091,0.429-0.061C36.307,12.689,36.161,12.689,36.015,12.689z"/>
	<path fill-rule="evenodd" clip-rule="evenodd" d="M1.05,34.927c-0.02-0.003-0.04-0.006-0.061-0.01c0,0.146,0,0.293,0,0.439
		C1.131,35.23,1.043,35.073,1.05,34.927z"/>
	<path fill-rule="evenodd" clip-rule="evenodd" fill="#FDC8A2" d="M16.563,37.122c-1.494-0.729-2.894-1.599-4.146-2.699
		c-2.114-1.858-3.696-4.088-4.745-6.699c-0.083-0.209-0.055-0.285,0.16-0.36c0.643-0.224,1.28-0.461,1.911-0.715
		c0.233-0.095,0.323-0.059,0.419,0.185c0.748,1.893,1.84,3.568,3.299,4.985c2.878,2.798,6.332,4.238,10.353,4.279
		c1.426,0.016,2.852,0.012,4.278-0.002c0.478-0.006,0.869,0.138,1.232,0.445c4.45,3.772,8.903,7.542,13.359,11.305
		c1.06,0.895,2.263,1.123,3.545,0.596c1.278-0.525,2.013-1.516,2.117-2.902c0.082-1.059-0.27-1.994-1.055-2.73
		c-4.819-4.527-9.642-9.05-14.463-13.575C31.513,28,30.2,26.766,28.878,25.542c-0.153-0.143-0.163-0.211-0.014-0.361
		c0.486-0.494,0.969-0.995,1.425-1.517c0.182-0.21,0.285-0.164,0.453-0.007c1.563,1.466,3.134,2.924,4.696,4.391
		c0.188,0.177,0.377,0.258,0.644,0.258c6.398-0.008,12.796-0.006,19.195-0.009c0.125,0,0.26,0.042,0.41-0.059
		c-0.781-0.624-1.546-1.238-2.313-1.85c-3.545-2.823-7.088-5.646-10.633-8.468c-2.174-1.73-4.652-2.598-7.429-2.599
		C24.905,15.32,14.498,15.321,4.09,15.321c-0.469,0-0.469,0-0.469,0.486c0,6.191,0,12.383,0,18.573
		c0.001,6.101,4.68,11.34,10.738,12.034c0.388,0.043,0.775,0.078,1.165,0.064c0.252,0.061,0.51,0.002,0.763,0.031
		c0.271,0.031,0.383-0.092,0.39-0.348c0.003-0.109,0.007-0.219,0.007-0.328c0-2.693,0-5.385-0.001-8.078
		C16.683,37.538,16.707,37.314,16.563,37.122z"/>
	<path fill-rule="evenodd" clip-rule="evenodd" fill="#A4DCFE" d="M27.899,64.674c0.134,0.006,0.267,0.016,0.4,0.016
		c14.709,0.002,29.419,0.002,44.128,0.002c2.281,0,3.963-1.684,3.963-3.967c0-5.021-0.006-10.041,0.01-15.063
		c0.002-0.385-0.109-0.441-0.459-0.441c-8.178,0.01-16.355,0.01-24.531,0c-0.324,0-0.434,0.041-0.455,0.414
		c-0.14,2.393-1.335,4.135-3.487,5.117c-2.193,1.002-4.323,0.725-6.259-0.736c-0.728-0.551-1.41-1.158-2.113-1.74
		c-0.397,0.289-0.657,0.703-0.976,1.064c-0.627,0.705-1.216,1.443-1.811,2.178c-0.099,0.121-0.197,0.246-0.233,0.406
		c-0.035,0.195-0.025,0.389-0.025,0.584c-0.001,2.113-0.001,4.229-0.001,6.344c0,0.133,0.001,0.266-0.002,0.4
		c-0.021,0.713-0.297,1.246-1.028,1.455c-0.171,0.082-0.354,0.07-0.536,0.07c-1.36,0-2.72,0.006-4.08-0.006
		c-0.33-0.004-0.532,0.107-0.699,0.4c-0.583,1.023-1.149,2.055-1.707,3.092C27.929,64.391,27.843,64.516,27.899,64.674z"/>
	<path fill-rule="evenodd" clip-rule="evenodd" fill="#90D3FC" d="M36.149,51.809c0.435-0.516,0.878-1.025,1.302-1.549
		c0.539-0.67,1.158-1.271,1.644-1.984c-1.157-0.984-2.315-1.969-3.469-2.957c-0.106-0.092-0.218-0.09-0.34-0.09
		c-4.396,0-8.793,0.002-13.19-0.006c-0.242-0.002-0.271,0.082-0.271,0.291c0.005,5.152-0.002,10.305,0.008,15.457
		c0.003,1.875,1.645,3.607,3.511,3.701c0.85,0.045,1.704,0.004,2.556,0.002c0.661-1.199,1.328-2.396,1.979-3.604
		c0.105-0.193,0.248-0.193,0.421-0.193c1.435,0.002,2.87,0.002,4.305,0c0.129,0,0.27,0.041,0.387-0.059
		c-0.165-0.18-0.384-0.125-0.584-0.125c-2.399-0.006-4.798-0.004-7.198-0.002c-0.361,0-0.7-0.043-0.985-0.303
		c-0.315-0.285-0.41-0.641-0.409-1.051c0.005-2.168,0.002-4.336,0.002-6.504c0-0.363-0.01-0.73,0.004-1.096
		c0.026-0.715,0.489-1.195,1.205-1.199c2.594-0.014,5.188-0.012,7.782,0c0.588,0.002,0.954,0.293,1.143,0.846
		C36.002,51.533,36.019,51.699,36.149,51.809z"/>
	<path fill-rule="evenodd" clip-rule="evenodd" fill="#1A57B8" d="M46.74,38.72c0.774,0.72,1.479,1.386,2.195,2.036
		c0.475,0.431,0.885,0.916,1.168,1.484c0.154,0.309,0.346,0.361,0.651,0.361c8.149-0.008,16.298-0.006,24.447-0.006
		c0.305,0,0.609-0.01,0.913,0.004c0.2,0.008,0.279-0.047,0.277-0.264c-0.01-1.12-0.008-2.241-0.002-3.361
		c0.002-0.183-0.044-0.281-0.244-0.256c-0.047,0.007-0.097,0.001-0.145,0.001c-9.636,0-19.271,0-28.906,0
		C47.009,38.72,46.925,38.72,46.74,38.72z"/>
	<path fill-rule="evenodd" clip-rule="evenodd" fill="#A4DCFE" d="M52.833,36.084c0.121,0.005,0.242,0.015,0.363,0.015
		c7.6,0.001,15.201-0.001,22.8,0.008c0.31,0,0.407-0.056,0.403-0.389c-0.012-0.938,0.038-1.879-0.459-2.733
		c-0.686-1.179-1.67-1.905-3.059-2.022c-0.129-0.055-0.264-0.026-0.396-0.026c-3.643-0.003-7.285,0.003-10.928-0.008
		c-0.441-0.001-0.82,0.107-1.209,0.319c-2.432,1.325-4.767,2.803-7.053,4.361C53.115,35.734,52.871,35.812,52.833,36.084z"/>
	<path fill-rule="evenodd" clip-rule="evenodd" fill="#90D3FC" d="M52.833,36.084c1.599-1.164,3.26-2.234,4.96-3.242
		c0.95-0.562,1.911-1.103,2.867-1.655c0.257-0.149,0.522-0.222,0.829-0.222c3.713,0.009,7.426,0.007,11.139,0.006
		c0.084,0,0.17-0.005,0.254-0.009c-0.167-0.019-0.335-0.054-0.503-0.054c-11.222-0.002-22.444-0.001-33.666,0
		c-0.058,0-0.116,0-0.174,0c-0.033,0.147,0.083,0.176,0.147,0.237c1.617,1.532,3.24,3.059,4.846,4.604
		c0.265,0.254,0.524,0.361,0.895,0.359c2.667-0.017,5.337-0.009,8.005-0.01C52.566,36.099,52.7,36.089,52.833,36.084z"/>
	<path fill-rule="evenodd" clip-rule="evenodd" fill="#1A57B8" d="M32.334,42.537c-0.689-0.584-1.372-1.163-2.055-1.741
		c-0.734-0.62-1.475-1.234-2.2-1.865c-0.179-0.155-0.356-0.216-0.589-0.215c-1.45,0.005-2.898,0.003-4.348-0.009
		c-0.364-0.003-0.729-0.044-1.091-0.081c-0.14-0.013-0.227-0.024-0.226,0.165c0.006,1.205,0.004,2.41,0.002,3.617
		c0,0.143,0.058,0.197,0.195,0.188c0.048-0.004,0.097,0,0.146,0c3.3,0,6.601,0,9.901-0.002
		C32.148,42.594,32.237,42.629,32.334,42.537z"/>
	<path fill-rule="evenodd" clip-rule="evenodd" fill="#F6BA8E" d="M16.563,37.122c0,2.978-0.005,5.955,0.009,8.931
		c0.002,0.342-0.1,0.453-0.43,0.418c-0.203-0.021-0.412,0.004-0.618,0.008c0.349,0.076,0.701,0.027,1.051,0.029
		c0.791,0.006,1.582-0.004,2.373,0.002c0.179,0,0.253-0.037,0.253-0.24c-0.007-2.664-0.006-5.33,0-7.994
		c0.001-0.176-0.072-0.233-0.215-0.271C18.152,37.785,17.36,37.448,16.563,37.122z"/>
	<path fill-rule="evenodd" clip-rule="evenodd" d="M36.149,51.809c-0.014-0.082-0.029-0.166-0.042-0.25
		c-0.106-0.709-0.602-1.148-1.326-1.148c-2.583-0.006-5.167-0.006-7.75,0c-0.787,0.002-1.326,0.551-1.327,1.34
		c-0.003,2.57-0.002,5.143,0,7.713c0,0.809,0.54,1.35,1.353,1.352c2.644,0.004,5.288,0.004,7.933,0.004
		c0.792-0.207,1.133-0.643,1.133-1.463c0.002-2.371,0-4.742,0.002-7.113C36.127,52.098,36.142,51.953,36.149,51.809z"/>
	<path fill-rule="evenodd" clip-rule="evenodd" d="M64.057,60.816c2.692,0,5.385-0.01,8.077,0.008
		c0.338,0.002,0.398-0.098,0.388-0.404c-0.024-0.633-0.022-1.268-0.001-1.9c0.01-0.279-0.076-0.34-0.346-0.34
		c-3.691,0.01-7.383,0.006-11.074,0.006c-1.719,0-3.437,0.006-5.154-0.006c-0.263-0.002-0.359,0.049-0.35,0.334
		c0.024,0.658,0.025,1.316,0,1.975c-0.01,0.285,0.082,0.334,0.346,0.332C58.648,60.813,61.352,60.816,64.057,60.816z"/>
	<path fill-rule="evenodd" clip-rule="evenodd" d="M67.308,54.314c1.631,0,3.262-0.006,4.893,0.006
		c0.258,0.004,0.327-0.066,0.32-0.32c-0.019-0.67-0.016-1.34-0.002-2.01c0.006-0.23-0.047-0.314-0.299-0.313
		c-3.273,0.008-6.549,0.008-9.824,0c-0.246,0-0.307,0.076-0.302,0.311c0.015,0.67,0.017,1.34-0.001,2.01
		c-0.008,0.254,0.061,0.326,0.32,0.322C64.044,54.309,65.675,54.314,67.308,54.314z"/>
	<path fill-rule="evenodd" clip-rule="evenodd" fill="#D8D8D8" d="M28.325,55.611c0,0.777,0.007,1.557-0.004,2.334
		c-0.003,0.209,0.062,0.266,0.267,0.266c1.546-0.008,3.091-0.012,4.637,0.002c0.257,0.002,0.298-0.092,0.297-0.318
		c-0.008-1.521-0.011-3.041,0.002-4.563c0.002-0.266-0.086-0.322-0.332-0.32c-1.521,0.01-3.042,0.01-4.563,0
		c-0.231-0.002-0.313,0.051-0.308,0.299C28.335,54.076,28.325,54.844,28.325,55.611z"/>
</g>
</svg>
