<?xml version="1.0" encoding="utf-8"?>
<!-- Generator: Adobe Illustrator 16.0.0, SVG Export Plug-In . SVG Version: 6.00 Build 0)  -->
<!DOCTYPE svg PUBLIC "-//W3C//DTD SVG 1.1//EN" "http://www.w3.org/Graphics/SVG/1.1/DTD/svg11.dtd">
<svg version="1.1" id="Capa_1" xmlns="http://www.w3.org/2000/svg" xmlns:xlink="http://www.w3.org/1999/xlink" x="0px" y="0px"
	 width="70px" height="70px" viewBox="-18.04 -15.988 70 70" enable-background="new -18.04 -15.988 70 70" xml:space="preserve">
<g>
	<path fill="#1A57B9" d="M35.478,27.006c-0.838,1.659-2.25,2.979-3.973,3.703h-6.072c-1.725-0.724-3.135-2.044-3.975-3.703h-32.057
		v24.68h55.115v-24.68H35.478z"/>
	<path fill="#FFAA1C" d="M41.011,51.686H15.928V39.79c0-2.401,1.947-4.349,4.351-4.349H36.66c2.402,0,4.352,1.947,4.352,4.349
		V51.686L41.011,51.686z"/>
	<g>
		<circle fill="#DC9E5E" cx="28.466" cy="14.031" r="4.755"/>
		<path fill="#DC9E5E" d="M33.099,12.949c0.08,0.348,0.125,0.709,0.125,1.082c0,2.626-2.129,4.755-4.756,4.755
			c-2.625,0-4.758-2.129-4.758-4.755c0-0.373,0.049-0.734,0.127-1.084c-1.875,0.668-3.219,2.459-3.219,4.566v5.957
			c0,3.26,1.986,6.052,4.814,7.238h6.072c2.826-1.187,4.816-3.979,4.816-7.238v-5.957C36.322,15.408,34.976,13.616,33.099,12.949z"
			/>
	</g>
	<path fill="#FBE4A3" d="M31.505,30.709h-6.074c0.055,0.026,0.115,0.049,0.17,0.07l-1.293,4.662h8.318l-1.291-4.662
		C31.392,30.758,31.449,30.736,31.505,30.709z"/>
	<path fill="#DC9E5E" d="M17.141-6.627v-0.447c0-0.074-0.001-0.151-0.004-0.228c-0.124-3.818-3.522-6.701-7.325-6.328
		c0,0-5.266,0.652-8.571,0.837c-2.056,0.115-2.766,3.16-2.766,5.378v0.787v0.884l0.479,6.825c2.466,0,3.172-3.292,3.172-5.758
		v-0.983l1.222,0.322c2.927,0.772,6,0.792,8.938,0.064l1.393-0.346c0.548,1.846-0.083,6.701,2.986,6.701L17.141-6.627L17.141-6.627z
		"/>
	<path fill="#F9E2A1" d="M13.677-5.619l-1.391,0.346C9.347-4.545,6.273-4.566,3.347-5.338L2.125-5.659v0.983
		c0,2.094-0.509,4.782-2.171,5.547v0.108c0,3.325,2.068,6.165,4.986,7.311l-0.81,3.231l3.679,2.54l3.677-2.54L10.677,8.29
		c2.917-1.146,4.985-3.985,4.985-7.311V0.863C13.735-0.105,14.155-4.009,13.677-5.619z"/>
	<path fill="#A5DDFF" d="M17.839,11.304h-6.408l0.054,0.216l-3.677,2.54l-3.679-2.54l0.055-0.216h-6.41
		c-1.5,0-2.719,1.218-2.719,2.72v12.982h25.559V14.024C20.558,12.522,19.341,11.304,17.839,11.304z"/>
	<polygon fill="#BEE6F2" points="7.809,14.061 5.671,12.584 4.546,22.416 7.809,25.755 11.069,22.416 9.945,12.584 	"/>
	<path d="M-5.644,32.839c-0.085,0-0.173-0.01-0.258-0.027c-0.085-0.017-0.169-0.041-0.249-0.075c-0.08-0.034-0.158-0.075-0.23-0.121
		c-0.073-0.048-0.14-0.104-0.201-0.166c-0.248-0.245-0.39-0.59-0.39-0.939c0-0.085,0.009-0.173,0.026-0.261
		c0.018-0.083,0.042-0.167,0.076-0.248c0.033-0.079,0.075-0.155,0.123-0.227c0.047-0.074,0.104-0.142,0.164-0.203
		c0.061-0.062,0.129-0.115,0.202-0.164c0.072-0.049,0.15-0.089,0.23-0.123c0.08-0.032,0.164-0.06,0.249-0.075
		c0.171-0.035,0.348-0.035,0.519,0c0.084,0.016,0.168,0.043,0.249,0.075c0.08,0.034,0.156,0.074,0.228,0.123
		c0.074,0.049,0.141,0.103,0.202,0.164c0.062,0.062,0.118,0.129,0.166,0.203c0.048,0.071,0.09,0.147,0.123,0.227
		c0.032,0.081,0.058,0.165,0.076,0.248c0.018,0.088,0.025,0.176,0.025,0.261c0,0.35-0.142,0.694-0.39,0.939
		c-0.061,0.062-0.129,0.118-0.202,0.166c-0.072,0.046-0.148,0.087-0.228,0.121c-0.081,0.034-0.166,0.059-0.249,0.075
		C-5.469,32.829-5.557,32.839-5.644,32.839z"/>
	<path d="M44.517,25.677h-7.139c0.176-0.71,0.27-1.45,0.27-2.206v-5.957c0-2.369-1.363-4.516-3.455-5.543
		c-0.846-2.342-3.094-4.022-5.725-4.022c-2.633,0-4.877,1.678-5.725,4.022c-0.381,0.186-0.738,0.412-1.066,0.67
		c-0.594-1.567-2.086-2.665-3.838-2.665h-5.372L12.23,9.029c2.514-1.374,4.222-3.817,4.652-6.637c0.6-0.099,1.066-0.6,1.105-1.226
		l0.48-7.709c0-0.029,0-0.057,0-0.083v-0.447c0-0.089,0-0.181-0.004-0.272c-0.07-2.183-1.023-4.188-2.68-5.643
		c-1.668-1.464-3.894-2.179-6.102-1.964c-0.012,0.002-0.022,0.002-0.035,0.004c-0.051,0.006-5.259,0.65-8.481,0.83
		c-0.835,0.046-2.376,0.461-3.308,2.721c-0.452,1.096-0.712,2.548-0.712,3.982v1.672c0,0.031,0.001,0.062,0.003,0.093l0.479,6.825
		c0.044,0.622,0.51,1.117,1.105,1.216c0.431,2.82,2.139,5.263,4.652,6.637L3.148,9.976h-5.372c-2.232,0-4.048,1.816-4.048,4.048
		v11.653h-4.326c-0.733,0-1.328,0.595-1.328,1.329v24.68c0,0.731,0.594,1.328,1.328,1.328h26.526h25.083h3.506
		c0.734,0,1.33-0.597,1.33-1.328v-24.68C45.847,26.272,45.251,25.677,44.517,25.677z M43.189,28.334v1.848h-8.457
		c0.59-0.548,1.1-1.169,1.525-1.848H43.189z M26.63,32.038h3.676l0.574,2.075h-4.826L26.63,32.038z M34.994,23.471
		c0,1.031-0.244,2.024-0.686,2.908c-0.004,0.009-0.012,0.018-0.014,0.026c-0.58,1.145-1.477,2.088-2.576,2.72
		c-0.004,0.002-0.008,0.004-0.012,0.008c-0.074,0.04-0.148,0.079-0.223,0.118c-0.004,0.004-0.01,0.008-0.018,0.012
		c-0.078,0.041-0.16,0.08-0.242,0.118h-5.512c-0.082-0.038-0.162-0.077-0.24-0.118c-0.008-0.004-0.014-0.008-0.02-0.012
		c-0.074-0.039-0.148-0.078-0.221-0.118c-0.004-0.004-0.008-0.006-0.012-0.008c-1.1-0.632-1.998-1.575-2.576-2.72
		c-0.004-0.009-0.012-0.018-0.016-0.026c-0.441-0.884-0.684-1.877-0.684-2.91v-5.955c0-0.73,0.229-1.421,0.625-1.997
		c0,0.006,0.004,0.012,0.004,0.02c0.006,0.023,0.014,0.046,0.02,0.07c0.018,0.067,0.037,0.134,0.059,0.2
		c0.008,0.031,0.018,0.062,0.027,0.091c0.018,0.06,0.039,0.117,0.061,0.175c0.01,0.033,0.021,0.064,0.035,0.095
		c0.02,0.059,0.043,0.115,0.066,0.17c0.012,0.03,0.023,0.061,0.035,0.09c0.027,0.062,0.057,0.122,0.086,0.182
		c0.01,0.024,0.02,0.047,0.031,0.068c0.039,0.084,0.082,0.167,0.127,0.247c0.004,0.008,0.008,0.015,0.014,0.023
		c0.039,0.072,0.08,0.144,0.121,0.215c0.016,0.023,0.031,0.049,0.047,0.074c0.033,0.052,0.066,0.104,0.102,0.157
		c0.018,0.027,0.035,0.054,0.055,0.084c0.035,0.048,0.068,0.095,0.104,0.143c0.02,0.027,0.041,0.055,0.061,0.08
		c0.037,0.048,0.074,0.097,0.113,0.146c0.018,0.024,0.039,0.047,0.059,0.07c0.045,0.058,0.096,0.115,0.145,0.169
		c0.012,0.011,0.021,0.025,0.033,0.037c0.063,0.068,0.123,0.134,0.189,0.198c0.018,0.018,0.031,0.033,0.049,0.048
		c0.049,0.049,0.098,0.095,0.146,0.14c0.023,0.021,0.049,0.043,0.074,0.064c0.041,0.041,0.088,0.08,0.133,0.117
		c0.025,0.024,0.053,0.044,0.08,0.066c0.045,0.037,0.09,0.073,0.137,0.108c0.027,0.02,0.053,0.041,0.08,0.06
		c0.053,0.037,0.104,0.074,0.156,0.111c0.023,0.016,0.045,0.031,0.068,0.046c0.076,0.053,0.152,0.102,0.23,0.15
		c0.004,0.002,0.01,0.005,0.016,0.007c0.072,0.045,0.145,0.088,0.221,0.128c0.025,0.014,0.053,0.028,0.078,0.041
		c0.055,0.029,0.111,0.058,0.168,0.085c0.031,0.015,0.063,0.029,0.094,0.044c0.053,0.025,0.104,0.048,0.158,0.072
		c0.031,0.014,0.064,0.029,0.098,0.041c0.055,0.023,0.111,0.046,0.166,0.067c0.031,0.012,0.063,0.024,0.094,0.035
		c0.066,0.023,0.135,0.047,0.201,0.068c0.02,0.006,0.041,0.014,0.063,0.02c0.088,0.027,0.178,0.055,0.27,0.077
		c0.023,0.006,0.045,0.01,0.068,0.016c0.066,0.018,0.137,0.033,0.203,0.049c0.035,0.006,0.066,0.012,0.102,0.02
		c0.059,0.011,0.119,0.021,0.18,0.031c0.037,0.006,0.072,0.011,0.107,0.018c0.063,0.008,0.119,0.015,0.18,0.023
		c0.037,0.003,0.072,0.007,0.107,0.009c0.066,0.009,0.133,0.012,0.195,0.016c0.031,0.002,0.063,0.004,0.094,0.007
		c0.098,0.005,0.193,0.007,0.291,0.007c0.1,0,0.195-0.002,0.293-0.007c0.029,0,0.061-0.005,0.092-0.007
		c0.066-0.004,0.131-0.007,0.195-0.014c0.035-0.004,0.07-0.008,0.107-0.011c0.061-0.009,0.121-0.016,0.182-0.023
		c0.035-0.007,0.07-0.012,0.109-0.018c0.057-0.01,0.119-0.021,0.178-0.031c0.035-0.008,0.066-0.014,0.102-0.02
		c0.066-0.016,0.135-0.031,0.201-0.049c0.023-0.006,0.049-0.01,0.07-0.016c0.092-0.022,0.18-0.049,0.27-0.077
		c0.021-0.006,0.041-0.014,0.063-0.02c0.068-0.021,0.133-0.045,0.199-0.068c0.031-0.011,0.063-0.023,0.094-0.035
		c0.057-0.021,0.113-0.042,0.166-0.065c0.035-0.014,0.066-0.027,0.098-0.043c0.055-0.023,0.107-0.046,0.16-0.072
		c0.031-0.014,0.064-0.029,0.096-0.044c0.055-0.027,0.111-0.054,0.162-0.083c0.027-0.014,0.055-0.028,0.082-0.043
		c0.072-0.041,0.146-0.082,0.217-0.124c0.006-0.004,0.014-0.007,0.02-0.012c0.078-0.048,0.154-0.097,0.229-0.148
		c0.027-0.017,0.049-0.033,0.072-0.05c0.051-0.035,0.102-0.07,0.152-0.107c0.027-0.021,0.055-0.042,0.082-0.064
		c0.047-0.035,0.092-0.069,0.135-0.104c0.027-0.024,0.055-0.044,0.082-0.068c0.045-0.037,0.09-0.076,0.133-0.113
		c0.021-0.023,0.049-0.044,0.074-0.068c0.049-0.045,0.096-0.089,0.141-0.136c0.018-0.018,0.037-0.035,0.057-0.053
		c0.061-0.064,0.123-0.129,0.188-0.196c0.014-0.016,0.025-0.031,0.037-0.046c0.047-0.053,0.094-0.105,0.141-0.16
		c0.02-0.025,0.041-0.05,0.063-0.076c0.035-0.046,0.07-0.091,0.107-0.138c0.02-0.029,0.043-0.058,0.063-0.085
		c0.035-0.046,0.066-0.094,0.1-0.141c0.021-0.029,0.041-0.058,0.061-0.087c0.033-0.048,0.064-0.099,0.096-0.15
		c0.016-0.027,0.033-0.054,0.051-0.082c0.039-0.065,0.078-0.132,0.113-0.2c0.008-0.012,0.016-0.025,0.023-0.037
		c0.043-0.08,0.086-0.161,0.125-0.243c0.01-0.027,0.023-0.052,0.035-0.08c0.027-0.057,0.053-0.115,0.08-0.17
		c0.012-0.033,0.025-0.066,0.039-0.1c0.021-0.053,0.043-0.106,0.063-0.159c0.014-0.035,0.027-0.07,0.039-0.105
		c0.02-0.054,0.037-0.108,0.055-0.163c0.01-0.035,0.023-0.068,0.035-0.103c0.018-0.06,0.035-0.123,0.049-0.185
		c0.008-0.027,0.018-0.057,0.023-0.083c0.002-0.005,0.004-0.012,0.008-0.018c0.395,0.575,0.623,1.266,0.623,1.997V23.471
		L34.994,23.471L34.994,23.471z M28.468,10.603c1.625,0,2.988,1.137,3.34,2.655c0.014,0.06,0.025,0.118,0.035,0.177
		c0,0.006,0.004,0.012,0.004,0.016c0.008,0.058,0.018,0.116,0.025,0.175c0,0.008,0,0.014,0,0.021
		c0.01,0.055,0.014,0.111,0.016,0.166c0,0.009,0,0.02,0.002,0.029c0.002,0.064,0.006,0.126,0.006,0.19
		c0,1.89-1.537,3.429-3.428,3.429c-1.889,0-3.428-1.539-3.428-3.429c0-0.064,0.004-0.126,0.008-0.19c0-0.009,0-0.02,0-0.029
		c0.004-0.055,0.008-0.111,0.016-0.166c0-0.007,0.002-0.016,0.004-0.023c0.006-0.059,0.014-0.115,0.023-0.171
		c0-0.008,0.004-0.014,0.004-0.02c0.01-0.058,0.021-0.115,0.035-0.17C25.48,11.742,26.843,10.603,28.468,10.603z M19.291,14.053
		v3.461v5.957v2.206H9.741l2.277-2.332c0.28-0.286,0.416-0.685,0.371-1.08l-1.035-9.042l0.855-0.59h5.629
		C18.601,12.633,19.248,13.268,19.291,14.053z M6.739,14.937l0.313,0.215c0.057,0.041,0.116,0.074,0.177,0.104
		c0.02,0.009,0.041,0.015,0.06,0.025c0.332,0.14,0.706,0.14,1.036,0c0.082-0.035,0.161-0.076,0.238-0.128l0.313-0.215l0.801,7.004
		l-1.871,1.913l-1.869-1.913L6.739,14.937z M-0.197-7.414c0-1.917,0.607-4.001,1.512-4.051c3.248-0.183,8.244-0.794,8.642-0.845
		c1.476-0.14,2.959,0.34,4.074,1.319c1.099,0.965,1.73,2.291,1.778,3.736c0.003,0.062,0.003,0.122,0.003,0.182v0.406l-0.296,4.77
		c-0.006-0.027-0.01-0.054-0.015-0.082c-0.018-0.089-0.033-0.182-0.048-0.275c-0.014-0.089-0.026-0.177-0.04-0.266
		c-0.007-0.064-0.017-0.126-0.024-0.188c-0.013-0.1-0.023-0.194-0.034-0.292c-0.011-0.091-0.02-0.181-0.028-0.272
		c-0.007-0.056-0.012-0.113-0.018-0.167c-0.011-0.119-0.022-0.237-0.033-0.354c-0.002-0.012-0.002-0.025-0.003-0.038
		c-0.032-0.35-0.063-0.687-0.104-1.012c-0.053-0.421-0.119-0.814-0.221-1.156c-0.204-0.68-0.904-1.082-1.593-0.91l-1.392,0.345
		C9.251-5.891,6.388-5.91,3.686-6.623l-1.222-0.32c-0.397-0.105-0.822-0.02-1.149,0.23C0.988-6.46,0.796-6.071,0.796-5.659v0.983
		c0,0.854-0.12,2.13-0.478,3.094C0.299-1.528,0.278-1.478,0.258-1.427c0,0.002-0.001,0.002-0.001,0.002
		C0.216-1.328,0.172-1.237,0.128-1.15l-0.325-4.64V-7.414L-0.197-7.414z M1.308,1.581C1.506,1.42,1.692,1.234,1.865,1.026
		C1.867,1.024,1.868,1.022,1.87,1.02c0.912-1.098,1.466-2.8,1.566-4.966C3.625-3.902,3.812-3.859,4-3.82
		c0.147,0.031,0.296,0.058,0.444,0.085c0.042,0.008,0.082,0.016,0.123,0.024C5.895-3.476,7.245-3.383,8.59-3.428
		c0.001,0,0.001,0,0.001,0c0.124-0.004,0.248-0.009,0.372-0.018C9.031-3.449,9.1-3.451,9.169-3.455
		c0.036-0.002,0.074-0.006,0.11-0.008c0.933-0.064,1.86-0.197,2.777-0.395c0.178-0.039,0.357-0.08,0.534-0.124
		c0.014,0.132,0.025,0.264,0.036,0.396c0.018,0.194,0.038,0.392,0.059,0.592c0.003,0.031,0.005,0.063,0.008,0.094
		c0.1,0.963,0.246,1.982,0.601,2.876c0.162,0.408,0.354,0.748,0.563,1.034c0.009,0.011,0.019,0.023,0.026,0.037
		c0.053,0.07,0.107,0.136,0.161,0.2c0.029,0.033,0.058,0.064,0.088,0.095c0.033,0.037,0.066,0.069,0.102,0.103
		c0.025,0.028,0.05,0.057,0.078,0.082c-0.204,2.473-1.777,4.607-4.122,5.528C9.569,7.3,9.226,7.966,9.388,8.615l0.586,2.336
		l-2.167,1.496L6.29,11.398l-0.647-0.447l0.586-2.336C6.391,7.966,6.047,7.3,5.425,7.054C3.097,6.14,1.531,4.032,1.308,1.581z
		 M-3.616,14.024c0-0.768,0.625-1.391,1.392-1.391h5.629l0.855,0.59l-1.034,9.042c-0.045,0.396,0.091,0.794,0.37,1.08l2.279,2.332
		h-9.492V14.024z M-9.27,28.334h4.326h25.559h0.066c0.422,0.679,0.936,1.3,1.523,1.848H-0.683c-0.734,0-1.33,0.597-1.33,1.328
		c0,0.734,0.596,1.329,1.33,1.329h24.335l-0.354,1.274h-3.02c-3.131,0-5.679,2.546-5.679,5.677v10.566H-9.27V28.334z M17.257,50.357
		V39.79c0-1.666,1.354-3.021,3.022-3.021h4.029h8.318h4.033c1.666,0,3.021,1.355,3.021,3.021v10.566H17.257z M42.339,50.357V39.79
		c0-3.131-2.549-5.677-5.68-5.677h-3.023l-0.354-1.274h9.906v17.518H42.339L42.339,50.357z"/>
</g>
</svg>
