<?xml version="1.0" encoding="utf-8"?>
<!-- Generator: Adobe Illustrator 16.0.0, SVG Export Plug-In . SVG Version: 6.00 Build 0)  -->
<!DOCTYPE svg PUBLIC "-//W3C//DTD SVG 1.1//EN" "http://www.w3.org/Graphics/SVG/1.1/DTD/svg11.dtd">
<svg version="1.1" id="Layer_1" xmlns="http://www.w3.org/2000/svg" xmlns:xlink="http://www.w3.org/1999/xlink" x="0px" y="0px"
	 width="70px" height="70px" viewBox="0 0 70 70" enable-background="new 0 0 70 70" xml:space="preserve">
<g>
	<path fill-rule="evenodd" clip-rule="evenodd" d="M0.977,59.808c0.152-0.273,0.126-0.585,0.176-0.878
		c0.96-5.595,5.206-9.938,10.803-11.03c0.599-0.116,1.206-0.19,1.827-0.233c-0.032-0.136-0.133-0.201-0.208-0.283
		c-1.625-1.771-2.471-3.856-2.487-6.262c-0.016-2.39-0.003-4.78-0.003-7.17c0-3.636,2.443-6.619,6.009-7.332
		c0.259-0.052,0.524-0.075,0.787-0.112c0.381-0.043,0.763-0.018,1.145-0.019c1.286-0.004,2.573,0.036,3.857-0.011
		c1.751-0.064,3.502-0.044,5.253-0.051c1.045-0.004,1.567,0.521,1.568,1.567c0.001,4.399,0.007,8.799-0.002,13.198
		c-0.004,2.188-0.743,4.117-2.116,5.813c-0.139,0.172-0.43,0.367-0.369,0.516c0.078,0.192,0.411,0.133,0.635,0.162
		c1.477,0.188,2.896,0.573,4.239,1.221c1.087,0.524,2.094,1.175,3.011,1.959c1.758,1.501,3.023,3.352,3.854,5.503
		c0.469,1.217,0.741,2.479,0.828,3.783c0.125,1.879,0.028,3.76,0.059,5.64c0.009,0.491,0.006,0.495,0.5,0.496
		c1.434,0,2.868,0.001,4.303-0.001c0.322-0.001,0.334-0.024,0.225-0.323c-0.717-1.981-0.452-3.799,0.908-5.434
		c0.261-0.313,0.246-0.305-0.023-0.617c-0.774-0.897-1.207-1.93-1.255-3.129c-0.045-1.11,0.208-2.127,0.806-3.061
		c0.145-0.225,0.293-0.447,0.491-0.625c0.198-0.179,0.21-0.323,0.025-0.532c-0.423-0.48-0.78-1.01-1.001-1.617
		c-1.163-3.195,0.804-6.456,4.035-6.931c0.231-0.034,0.463-0.052,0.697-0.052c4.941,0.004,9.883-0.006,14.824,0.005
		c1.696,0.155,2.99,0.979,3.93,2.382c0.426,0.637,0.646,1.347,0.717,2.106c0,0.085,0,0.17,0,0.255c-0.053,0.234-0.053,0.468,0,0.702
		c0,0.106,0,0.212,0,0.318c-0.102,1.121-0.589,2.063-1.337,2.884c-0.116,0.128-0.114,0.227-0.011,0.358
		c0.205,0.257,0.43,0.498,0.607,0.776c0.425,0.663,0.676,1.384,0.74,2.168c0,0.063,0,0.127,0,0.191
		c-0.054,0.276-0.054,0.553,0,0.829c0,0.085,0,0.17,0,0.255c-0.107,1.095-0.579,2.025-1.303,2.833
		c-0.174,0.195-0.119,0.307,0.031,0.478c0.637,0.72,1.084,1.538,1.23,2.503c0.019,0.125-0.033,0.255,0.041,0.372
		c0,0.064,0,0.128,0,0.191c-0.054,0.276-0.054,0.553,0,0.829c0,0.064,0,0.128,0,0.191c-0.082,0.943-0.423,1.784-1.012,2.522
		c-0.678,0.852-1.524,1.462-2.58,1.77c-0.224,0.065-0.459,0.04-0.682,0.108c-20.96,0-41.92,0-62.881,0
		c-0.495-0.135-0.802-0.445-0.893-0.956c0-2.509,0-5.018,0-7.526c0.052-0.127,0.052-0.255,0-0.382
		C0.977,60.021,0.977,59.914,0.977,59.808z"/>
	<path fill-rule="evenodd" clip-rule="evenodd" d="M53.59,1.009c0.076,0.133,0.21,0.055,0.313,0.077
		c0.583,0.131,1.14,0.326,1.655,0.633c0.747,0.444,1.494,0.888,2.24,1.332c0.74,0.44,0.949,1.072,0.608,1.872
		c-1.321,3.108-2.646,6.215-3.968,9.322c-0.216,0.506-0.424,1.016-0.65,1.516c-0.094,0.207-0.072,0.288,0.16,0.379
		c3.783,1.48,6.666,3.997,8.602,7.572c1.297,2.394,1.925,4.967,1.943,7.688c0.008,1.159,0.002,2.317,0,3.476
		c0,0.868-0.473,1.387-1.336,1.473c-0.395,0.091-0.91-0.153-1.16-0.549c-0.205-0.326-0.271-0.688-0.271-1.066
		c0-1.2,0.018-2.401-0.003-3.602c-0.055-3.12-1.099-5.888-3.062-8.3c-1.166-1.431-2.566-2.596-4.205-3.46
		c-0.594-0.313-1.208-0.577-1.844-0.789c-0.174-0.059-0.353-0.074-0.534-0.074c-6.088,0.001-12.176,0.003-18.264-0.003
		c-0.411-0.001-0.769,0.156-1.129,0.304c-1.478,0.606-2.802,1.456-3.993,2.524c-0.949,0.851-1.746,1.823-2.437,2.887
		c-0.329,0.506-0.776,0.778-1.391,0.72c-0.199-0.02-0.405-0.045-0.541-0.226c-0.731-0.564-0.852-1.242-0.349-2.027
		c1.95-3.047,4.619-5.223,7.984-6.539c0.273-0.106,0.29-0.193,0.182-0.442C30.6,12.13,29.068,8.552,27.534,4.974
		c-0.363-0.845-0.155-1.479,0.632-1.94c0.759-0.445,1.515-0.894,2.274-1.339c0.545-0.32,1.129-0.533,1.756-0.623
		c0.043-0.006,0.083-0.012,0.093-0.063c0.467,0,0.935,0,1.403,0c1.17,0.06,2.105,0.624,2.979,1.351
		c0.9,0.748,2.111,0.747,3.02,0.014c0.945-0.763,2.033-1.167,3.23-1.178c1.193-0.011,2.299,0.349,3.258,1.099
		c0.449,0.351,0.934,0.603,1.535,0.614c0.666,0.013,1.225-0.213,1.715-0.639c0.461-0.401,0.979-0.709,1.531-0.963
		c0.41-0.188,0.852-0.234,1.289-0.298C52.698,1.009,53.144,1.009,53.59,1.009z"/>
	<path fill-rule="evenodd" clip-rule="evenodd" d="M69.024,56.938c-0.105-0.276-0.105-0.553,0-0.829
		C69.024,56.386,69.024,56.662,69.024,56.938z"/>
	<path fill-rule="evenodd" clip-rule="evenodd" d="M69.024,64.399c-0.109-0.276-0.1-0.553,0-0.829
		C69.024,63.847,69.024,64.123,69.024,64.399z"/>
	<path fill-rule="evenodd" clip-rule="evenodd" d="M69.024,49.413c-0.104-0.234-0.104-0.468,0-0.702
		C69.024,48.945,69.024,49.179,69.024,49.413z"/>
	<path fill-rule="evenodd" clip-rule="evenodd" d="M0.977,60.127c0.112,0.127,0.083,0.255,0,0.382
		C0.977,60.382,0.977,60.254,0.977,60.127z"/>
	<path fill-rule="evenodd" clip-rule="evenodd" fill="#CCE8F9" d="M23.284,26.45c0.228,0.002,0.328-0.064,0.404-0.283
		c0.174-0.5,0.394-0.982,0.638-1.453c0.948,0.321,1.396,0.167,1.954-0.686c1.661-2.538,3.904-4.354,6.735-5.442
		c0.241-0.093,0.481-0.141,0.741-0.141c5.907,0.004,11.814,0.013,17.721-0.01c0.796-0.003,1.521,0.142,2.232,0.48
		c4.234,2.014,6.865,5.296,7.855,9.884c0.191,0.884,0.266,1.779,0.258,2.684c-0.01,1.084-0.002,2.168-0.002,3.252
		c0,0.989,0.365,1.43,1.338,1.612c-0.001,0.668,0,1.336-0.004,2.004c0,0.13-0.006,0.256,0.127,0.331
		c-0.093,0.132-0.246,0.101-0.375,0.131c-0.574,0.137-0.993,0.638-0.992,1.198c0.002,0.587,0.393,1.067,0.975,1.208
		c0.1,0.025,0.247-0.014,0.27,0.154c0,0.771,0.008,1.544-0.008,2.316c-0.006,0.244,0.078,0.3,0.309,0.3
		c0.322-0.001-8.871,0.054-13.791,0.056c-2.404,0.001-4.381,1.504-4.949,3.833c-0.434,1.775,0,3.36,1.26,4.695
		c0.185,0.194,0.178,0.275-0.004,0.462c-1.891,1.931-1.881,5.068,0.017,6.994c0.153,0.156,0.196,0.233,0.015,0.416
		c-1.469,1.475-1.856,3.699-0.985,5.613c0.114,0.251,0.103,0.314-0.192,0.313c-1.594-0.012-3.188-0.013-4.781,0.002
		c-0.268,0.002-0.305-0.09-0.304-0.323c0.009-1.572,0.007-3.146,0.004-4.718c-0.006-3.834-1.347-7.123-4.08-9.814
		c-2.002-1.973-4.409-3.19-7.19-3.647c-0.508-0.083-1.019-0.145-1.563-0.221c0.262-0.313,0.528-0.608,0.769-0.921
		c1.278-1.657,1.937-3.531,1.937-5.629c0.001-4.389,0-8.778,0-13.167c0-0.901-0.517-1.424-1.414-1.425"/>
	<path fill-rule="evenodd" clip-rule="evenodd" fill="#A4DCFE" d="M20.345,66.344c-5.452,0-10.904-0.002-16.355,0.006
		c-0.269,0-0.359-0.048-0.353-0.341c0.021-1.03,0.026-2.062-0.002-3.092c-0.009-0.343,0.105-0.385,0.405-0.384
		c3.475,0.01,6.95,0.008,10.425,0.006c0.725-0.001,1.263-0.497,1.342-1.225c0.07-0.646-0.375-1.262-1.031-1.411
		c-0.132-0.029-0.273-0.03-0.411-0.03C10.933,59.871,7.5,59.87,4.068,59.876c-0.251,0-0.356-0.001-0.307-0.329
		c0.697-4.622,4.392-8.354,8.988-9.069c0.297-0.047,0.482,0.007,0.693,0.22c1.96,1.978,3.932,3.943,5.901,5.911
		c0.638,0.638,1.403,0.638,2.044-0.002c1.977-1.976,3.956-3.949,5.924-5.934c0.196-0.198,0.369-0.248,0.64-0.197
		c4.073,0.762,6.882,3.069,8.438,6.897c0.493,1.211,0.693,2.489,0.694,3.797c0,1.604-0.007,3.21,0.007,4.814
		c0.002,0.282-0.061,0.367-0.358,0.366C31.27,66.341,25.807,66.344,20.345,66.344z"/>
	<path fill-rule="evenodd" clip-rule="evenodd" fill="#FECCAB" d="M26.938,37.744c0.007,0.028,0.022,0.057,0.022,0.086
		c-0.009,1.285,0.059,2.571-0.027,3.854c-0.192,2.861-2.576,5.408-5.413,5.887c-3.725,0.628-7.16-1.91-7.696-5.568
		c-0.156-1.064-0.064-2.142-0.083-3.213c-0.001-0.105,0.03-0.161,0.144-0.154c0.074,0.005,0.148,0,0.223,0
		c3.166,0,6.332-0.004,9.497,0.003c1.12,0.002,2.162-0.26,3.128-0.825c0.045-0.026,0.091-0.054,0.139-0.075
		C26.888,37.73,26.913,37.741,26.938,37.744z"/>
	<path fill-rule="evenodd" clip-rule="evenodd" fill="#FEBB53" d="M56.78,54.143c2.369,0,4.74-0.001,7.109,0
		c1.334,0.001,2.424,1.028,2.445,2.304c0.023,1.348-0.986,2.43-2.352,2.46c-1.338,0.029-2.678,0.009-4.017,0.009
		c-3.401,0-6.802,0.001-10.203-0.001c-1.313-0.001-2.29-0.784-2.503-1.994c-0.252-1.426,0.863-2.771,2.313-2.775
		C51.975,54.138,54.377,54.143,56.78,54.143z"/>
	<path fill-rule="evenodd" clip-rule="evenodd" fill="#FEA61C" d="M56.747,51.464c-2.381,0-4.762,0.004-7.143-0.002
		c-1.195-0.003-2.143-0.826-2.35-2.015c-0.189-1.101,0.463-2.201,1.541-2.601c0.273-0.102,0.555-0.142,0.843-0.142
		c4.761,0,9.522-0.002,14.283,0.002c1.36,0.001,2.418,1.058,2.413,2.395c-0.004,1.313-1.066,2.358-2.414,2.361
		C61.529,51.467,59.137,51.464,56.747,51.464z"/>
	<path fill-rule="evenodd" clip-rule="evenodd" fill="#FEA61C" d="M56.811,61.583c2.359,0,4.719-0.004,7.078,0.002
		c1.393,0.004,2.449,1.046,2.445,2.396c-0.003,1.276-1.037,2.354-2.318,2.356c-4.825,0.012-9.65,0.012-14.475,0
		c-1.293-0.003-2.327-1.095-2.319-2.389c0.008-1.303,1.05-2.354,2.384-2.361C52.007,61.574,54.409,61.583,56.811,61.583z"/>
	<path fill-rule="evenodd" clip-rule="evenodd" fill="#FEBB53" d="M18.985,35.956c-1.636,0-3.273-0.009-4.909,0.009
		c-0.295,0.003-0.351-0.087-0.339-0.354c0.036-0.879-0.06-1.764,0.11-2.637c0.426-2.186,2.34-3.796,4.557-3.805
		c2.752-0.011,5.504,0,8.255-0.007c0.228-0.001,0.313,0.045,0.31,0.294c-0.014,1.115,0.003,2.231-0.008,3.348
		c-0.017,1.714-1.476,3.149-3.195,3.152C22.172,35.959,20.579,35.956,18.985,35.956z"/>
	<path fill-rule="evenodd" clip-rule="evenodd" fill="#FEFEFE" d="M23.84,50.363c-1.151,1.15-2.262,2.259-3.369,3.371
		c-0.089,0.089-0.142,0.086-0.229-0.002c-1.107-1.111-2.218-2.218-3.371-3.369C19.214,50.363,21.497,50.363,23.84,50.363z"/>
	<path fill-rule="evenodd" clip-rule="evenodd" d="M63.159,41.374c-0.141-0.034-0.285-0.062-0.424-0.104
		c-0.636-0.197-0.951-0.81-0.903-1.338c0.064-0.703,0.585-1.191,1.261-1.236c0.063-0.004,0.127-0.009,0.189-0.013
		c0.707,0.137,1.154,0.59,1.21,1.226c0.052,0.597-0.304,1.163-0.871,1.364C63.473,41.325,63.313,41.341,63.159,41.374z"/>
	<path fill-rule="evenodd" clip-rule="evenodd" fill="#1A57B8" d="M35.038,15.676c-0.635-1.467-1.274-2.933-1.906-4.401
		c-0.878-2.043-1.746-4.091-2.633-6.13c-0.114-0.263-0.073-0.383,0.173-0.505c0.303-0.15,0.586-0.34,0.88-0.51
		c1.24-0.717,2.164-0.653,3.26,0.272c0.936,0.79,2.012,1.188,3.22,1.271c0.105,0.038,0.209,0.039,0.313,0
		c1.14-0.073,2.168-0.438,3.07-1.147c0.972-0.765,2.146-0.796,3.098-0.037c0.893,0.711,1.899,1.083,3.022,1.185
		c0.168,0.039,0.336,0.039,0.504,0c1.232-0.1,2.313-0.548,3.25-1.365c0.881-0.771,1.965-0.849,2.977-0.255
		c0.355,0.209,0.705,0.433,1.068,0.629c0.176,0.096,0.211,0.175,0.127,0.369c-1.212,2.832-2.413,5.668-3.619,8.502
		c-0.312,0.73-0.63,1.457-0.944,2.186c-0.099,0.061-0.208,0.031-0.312,0.031c-5.057,0.002-10.115,0.002-15.172-0.001
		C35.287,15.769,35.132,15.833,35.038,15.676z"/>
	<path fill-rule="evenodd" clip-rule="evenodd" fill="#316AA6" d="M35.038,15.676c0.104,0.069,0.221,0.065,0.338,0.065
		c5.173-0.002,10.347-0.003,15.522-0.003c-0.074,0.118-0.192,0.063-0.29,0.063c-5.088,0.004-10.176,0.004-15.265,0
		C35.235,15.801,35.072,15.88,35.038,15.676z"/>
	<path fill-rule="evenodd" clip-rule="evenodd" fill="#3069A7" d="M48.04,5.673c-0.168,0.087-0.336,0.088-0.504,0
		C47.704,5.673,47.872,5.673,48.04,5.673z"/>
	<path fill-rule="evenodd" clip-rule="evenodd" fill="#3069A8" d="M38.345,5.673c-0.104,0.082-0.208,0.082-0.313,0
		C38.136,5.673,38.241,5.673,38.345,5.673z"/>
	<path fill-rule="evenodd" clip-rule="evenodd" d="M46.085,35.738c0.002-0.786,0.364-1.306,1.022-1.448
		c0.834-0.181,1.622,0.388,1.621,1.245c-0.002,0.965,0.956,1.729,2.05,1.672c0.484-0.024,0.935-0.179,1.298-0.526
		c0.77-0.734,0.674-1.791-0.211-2.384c-0.443-0.296-0.94-0.366-1.457-0.372c-1.996-0.023-3.814-1.503-4.233-3.443
		c-0.405-1.876,0.611-3.803,2.457-4.656c0.01-0.005,0.02-0.009,0.03-0.012c0.434-0.114,0.711-0.292,0.764-0.839
		c0.059-0.597,0.774-1.01,1.365-0.94c0.65,0.078,1.179,0.604,1.191,1.245c0.004,0.245,0.102,0.317,0.302,0.388
		c1.768,0.622,2.954,2.198,2.968,3.928c0.005,0.749-0.537,1.355-1.243,1.39c-0.757,0.037-1.361-0.476-1.394-1.253
		c-0.036-0.858-0.64-1.464-1.493-1.658c-0.865-0.197-1.807,0.193-2.204,0.906c-0.38,0.684-0.15,1.498,0.556,1.963
		c0.413,0.272,0.871,0.356,1.36,0.358c1.818,0.009,3.555,1.213,4.162,2.874c0.808,2.204-0.404,4.611-2.731,5.411
		c-0.175,0.061-0.26,0.111-0.284,0.328c-0.08,0.724-0.637,1.166-1.387,1.154c-0.641-0.011-1.166-0.496-1.23-1.179
		c-0.02-0.212-0.135-0.244-0.287-0.303c-1.533-0.578-2.559-1.616-2.914-3.251C46.121,36.141,46.111,35.938,46.085,35.738z"/>
	<path fill-rule="evenodd" clip-rule="evenodd" d="M20.359,59.872c0.742,0,1.339,0.586,1.344,1.32
		c0.005,0.749-0.601,1.353-1.352,1.348c-0.739-0.006-1.328-0.601-1.326-1.34S19.618,59.872,20.359,59.872z"/>
</g>
</svg>
